<?xml version="1.0" encoding="UTF-8" standalone="no"?>
<!-- Created with Inkscape (http://www.inkscape.org/) -->

<svg
   xmlns:dc="http://purl.org/dc/elements/1.1/"
   xmlns:cc="http://creativecommons.org/ns#"
   xmlns:rdf="http://www.w3.org/1999/02/22-rdf-syntax-ns#"
   xmlns:svg="http://www.w3.org/2000/svg"
   xmlns="http://www.w3.org/2000/svg"
   xmlns:sodipodi="http://sodipodi.sourceforge.net/DTD/sodipodi-0.dtd"
   xmlns:inkscape="http://www.inkscape.org/namespaces/inkscape"
   width="56.960938"
   height="56.492188"
   viewBox="0 0 56.960939 56.492189"
   id="svg2"
   version="1.1"
   inkscape:version="0.92.0 r15299"
   sodipodi:docname="kc_e2bfbae4b99ae7b1b3.svg">
  <defs
     id="defs4" />
  <sodipodi:namedview
     id="base"
     pagecolor="#ffffff"
     bordercolor="#666666"
     borderopacity="1.0"
     inkscape:pageopacity="0.0"
     inkscape:pageshadow="2"
     inkscape:zoom="7.919596"
     inkscape:cx="24.124755"
     inkscape:cy="27.295748"
     inkscape:document-units="px"
     inkscape:current-layer="text4151"
     showgrid="false"
     fit-margin-left="1"
     fit-margin-top="1"
     fit-margin-bottom="1"
     fit-margin-right="1"
     inkscape:window-width="1280"
     inkscape:window-height="755"
     inkscape:window-x="0"
     inkscape:window-y="23"
     inkscape:window-maximized="1"
     units="px" />
  <metadata
     id="metadata7">
    <rdf:RDF>
      <cc:Work
         rdf:about="">
        <dc:format>image/svg+xml</dc:format>
        <dc:type
           rdf:resource="http://purl.org/dc/dcmitype/StillImage" />
        <dc:title />
      </cc:Work>
    </rdf:RDF>
  </metadata>
  <g
     inkscape:label="Layer 1"
     inkscape:groupmode="layer"
     id="layer1"
     transform="translate(-2.2022171,-2.3556061)">
    <flowRoot
       xml:space="preserve"
       id="flowRoot4136"
       style="font-style:normal;font-weight:normal;font-size:25px;line-height:121.00000381%;font-family:sans-serif;text-align:end;letter-spacing:0px;word-spacing:0px;text-anchor:end;fill:#000000;fill-opacity:1;stroke:none;stroke-width:1px;stroke-linecap:butt;stroke-linejoin:miter;stroke-opacity:1"><flowRegion
         id="flowRegion4138"><rect
           id="rect4140"
           width="427.14285"
           height="412.85715"
           x="97.14286"
           y="103.79078" /></flowRegion><flowPara
         id="flowPara4142" /></flowRoot>    <g
       style="font-style:normal;font-variant:normal;font-weight:normal;font-stretch:normal;font-size:30px;line-height:121.00000381%;font-family:FreeSerif;-inkscape-font-specification:FreeSerif;text-align:end;letter-spacing:0px;word-spacing:0px;text-anchor:end;fill:#000000;fill-opacity:1;stroke:none;stroke-width:1px;stroke-linecap:butt;stroke-linejoin:miter;stroke-opacity:1"
       id="text4144">
      <g
         aria-label="断"
         style="font-style:normal;font-weight:normal;font-size:25px;line-height:121.00000381%;font-family:sans-serif;text-align:end;letter-spacing:0px;word-spacing:0px;text-anchor:end;fill:#000000;fill-opacity:1;stroke:none;stroke-width:1px;stroke-linecap:butt;stroke-linejoin:miter;stroke-opacity:1"
         id="text4151"
         transform="matrix(1.1443564,0,0,1,-4.8403775,0)">
        <path
           sodipodi:type="inkscape:offset"
           inkscape:radius="-0.50507623"
           inkscape:original="M 30.667969 5.5820312 L 30.667969 24.126953 L 17.433594 24.126953 L 17.433594 8.0429688 L 11.664062 8.0429688 L 11.664062 56.148438 L 17.433594 56.148438 L 17.433594 51.958984 L 48.804688 51.958984 L 48.804688 48.296875 L 17.433594 48.296875 L 17.433594 27.671875 L 29.800781 27.671875 C 26.908112 32.984375 22.873189 37.779297 17.695312 42.056641 L 21.166016 45.425781 C 25.013267 41.832031 28.180275 37.769531 30.667969 33.238281 L 30.667969 46.919922 L 36.351562 46.919922 L 36.351562 33.794922 C 39.041746 35.728516 41.950136 38.28711 45.074219 41.470703 L 48.892578 38.101562 C 45.421375 35.269531 41.240173 32.457031 36.351562 29.664062 L 36.351562 27.671875 L 50.150391 27.671875 L 50.150391 24.126953 L 36.351562 24.126953 L 36.351562 5.5820312 L 30.667969 5.5820312 z M 43.642578 9.7128906 C 42.369804 13.365235 40.531775 17.271485 38.130859 21.431641 L 43.121094 22.574219 C 45.955911 18.453125 48.052554 14.605469 49.412109 11.03125 L 43.642578 9.7128906 z M 24.376953 10.386719 L 19.126953 11.646484 C 20.920408 14.908203 22.365628 18.570312 23.464844 22.632812 L 28.976562 21.373047 C 27.703788 17.134766 26.170407 13.472656 24.376953 10.386719 z "
           style="font-style:normal;font-variant:normal;font-weight:normal;font-stretch:normal;font-size:60px;font-family:IPAGothic;-inkscape-font-specification:IPAGothic;stroke-width:1.2169826px"
           id="path822"
           d="M 31.173828,6.0878906 V 24.126953 a 0.50512674,0.50512674 0 0 1 -0.505859,0.505859 H 17.433594 a 0.50512674,0.50512674 0 0 1 -0.50586,-0.505859 V 8.5488281 H 12.169922 V 55.642578 h 4.757812 v -3.683594 a 0.50512674,0.50512674 0 0 1 0.50586,-0.505859 H 48.298828 V 48.802734 H 17.433594 a 0.50512674,0.50512674 0 0 1 -0.50586,-0.505859 v -20.625 a 0.50512674,0.50512674 0 0 1 0.50586,-0.505859 h 12.367187 a 0.50512674,0.50512674 0 0 1 0.44336,0.748046 c -2.843717,5.222597 -6.798255,9.935083 -11.810547,14.15625 l 2.726562,2.644532 c 3.650465,-3.475689 6.678968,-7.37367 9.064453,-11.71875 a 0.50512674,0.50512674 0 0 1 0.949219,0.242187 v 13.175781 h 4.671875 v -12.61914 a 0.50512674,0.50512674 0 0 1 0.800781,-0.410156 c 2.617439,1.881308 5.437957,4.369638 8.441407,7.40039 l 3.001953,-2.65039 c -3.355991,-2.689664 -7.325618,-5.36737 -11.988282,-8.03125 a 0.50512674,0.50512674 0 0 1 -0.255859,-0.439454 v -1.992187 a 0.50512674,0.50512674 0 0 1 0.505859,-0.505859 H 49.644531 V 24.632812 H 36.351562 A 0.50512674,0.50512674 0 0 1 35.845703,24.126953 V 6.0878906 Z m 12.771484,4.2128904 c -1.213284,3.388525 -2.906954,6.985087 -5.0625,10.785157 l 4,0.916015 c 2.580116,-3.786378 4.49872,-7.321345 5.808594,-10.617187 z m -19.84375,0.669922 -4.255859,1.021485 c 1.605285,3.025689 2.92767,6.369051 3.955078,10.044921 l 4.509766,-1.029297 c -1.1877,-3.839972 -2.590204,-7.190161 -4.208985,-10.037109 z" />
      </g>
    </g>
  </g>
</svg>
