<?xml version="1.0" encoding="UTF-8" standalone="no"?>
<!-- Created with Inkscape (http://www.inkscape.org/) -->

<svg
   xmlns:dc="http://purl.org/dc/elements/1.1/"
   xmlns:cc="http://creativecommons.org/ns#"
   xmlns:rdf="http://www.w3.org/1999/02/22-rdf-syntax-ns#"
   xmlns:svg="http://www.w3.org/2000/svg"
   xmlns="http://www.w3.org/2000/svg"
   xmlns:sodipodi="http://sodipodi.sourceforge.net/DTD/sodipodi-0.dtd"
   xmlns:inkscape="http://www.inkscape.org/namespaces/inkscape"
   width="55.085938"
   height="55.525391"
   viewBox="0 0 55.085939 55.525392"
   id="svg2"
   version="1.1"
   inkscape:version="0.91 r13725"
   sodipodi:docname="kc_e2bfbbe59c9fe68888.svg">
  <defs
     id="defs4" />
  <sodipodi:namedview
     id="base"
     pagecolor="#ffffff"
     bordercolor="#666666"
     borderopacity="1.0"
     inkscape:pageopacity="0.0"
     inkscape:pageshadow="2"
     inkscape:zoom="11.2"
     inkscape:cx="9.3100665"
     inkscape:cy="25.259636"
     inkscape:document-units="px"
     inkscape:current-layer="text4151"
     showgrid="false"
     fit-margin-left="1"
     fit-margin-top="1"
     fit-margin-bottom="1"
     fit-margin-right="1"
     inkscape:window-width="1920"
     inkscape:window-height="1035"
     inkscape:window-x="0"
     inkscape:window-y="23"
     inkscape:window-maximized="1"
     units="px" />
  <metadata
     id="metadata7">
    <rdf:RDF>
      <cc:Work
         rdf:about="">
        <dc:format>image/svg+xml</dc:format>
        <dc:type
           rdf:resource="http://purl.org/dc/dcmitype/StillImage" />
        <dc:title></dc:title>
      </cc:Work>
    </rdf:RDF>
  </metadata>
  <g
     inkscape:label="Layer 1"
     inkscape:groupmode="layer"
     id="layer1"
     transform="translate(-3.4619827,-3.0294342)">
    <flowRoot
       xml:space="preserve"
       id="flowRoot4136"
       style="font-style:normal;font-weight:normal;font-size:25px;line-height:121.00000381%;font-family:sans-serif;text-align:end;letter-spacing:0px;word-spacing:0px;text-anchor:end;fill:#000000;fill-opacity:1;stroke:none;stroke-width:1px;stroke-linecap:butt;stroke-linejoin:miter;stroke-opacity:1"><flowRegion
         id="flowRegion4138"><rect
           id="rect4140"
           width="427.14285"
           height="412.85715"
           x="97.14286"
           y="103.79078" /></flowRegion><flowPara
         id="flowPara4142" /></flowRoot>    <g
       style="font-style:normal;font-variant:normal;font-weight:normal;font-stretch:normal;font-size:30px;line-height:121.00000381%;font-family:FreeSerif;-inkscape-font-specification:FreeSerif;text-align:end;letter-spacing:0px;word-spacing:0px;text-anchor:end;fill:#000000;fill-opacity:1;stroke:none;stroke-width:1px;stroke-linecap:butt;stroke-linejoin:miter;stroke-opacity:1"
       id="text4144">
      <g
         style="font-style:normal;font-weight:normal;font-size:25px;line-height:121.00000381%;font-family:sans-serif;text-align:end;letter-spacing:0px;word-spacing:0px;text-anchor:end;fill:#000000;fill-opacity:1;stroke:none;stroke-width:1px;stroke-linecap:butt;stroke-linejoin:miter;stroke-opacity:1"
         id="text4151">
        <path
           d="m 18.670967,11.705215 0,-7.6757808 4.130859,0 0,7.6757808 10.986329,0 0,3.603516 -10.986329,0 0,6.591797 14.296875,0 C 36.903389,19.361465 36.717842,15.386856 36.542061,9.9766998 l -0.175781,-5.9472656 4.130859,0 0.146484,5.8886719 c 0.03906,3.6523439 0.234373,7.5683599 0.585938,11.7480469 l 15.966797,0 0,3.720703 -15.673828,0 c 0.546875,5.527344 1.513671,10.146485 2.90039,13.857422 2.089844,-3.378906 3.808594,-7.041015 5.15625,-10.986328 l 3.837891,1.816406 c -1.816407,4.824219 -4.199219,9.355469 -7.148438,13.59375 2.285157,4.453125 4.023438,6.679688 5.214844,6.679688 0.9375,0 1.699219,-2.900391 2.285156,-8.701172 l 3.779297,2.8125 c -1.132813,7.890625 -2.8125,11.835937 -5.039062,11.835937 -1.132813,0 -2.587891,-0.917969 -4.365235,-2.753906 -1.660156,-1.660156 -3.222656,-3.75 -4.6875,-6.269531 -3.535156,4.199219 -7.617187,7.626953 -12.246093,10.283203 L 28.133858,54.302872 C 33.270577,51.744278 37.733467,48.082169 41.52253,43.316544 39.530342,38.648575 38.17292,32.750137 37.450264,25.621231 l -32.9882813,0 0,-3.720703 14.2089843,0 0,-6.591797 -11.5136718,0 0,-3.603516 z m 31.025391,6.533204 C 48.036201,14.82045 46.073311,11.705215 43.807686,8.8927155 L 47.294014,6.900528 c 2.363281,2.8125 4.443359,5.830078 6.240234,9.052734 z"
           style="font-style:normal;font-variant:normal;font-weight:normal;font-stretch:normal;font-size:60px;font-family:IPAGothic;-inkscape-font-specification:IPAGothic"
           id="path4160"
           inkscape:connector-curvature="0"
           sodipodi:nodetypes="cccccccccccccccccccccsccscccccccccccccccccc" />
      </g>
    </g>
  </g>
</svg>
