<?xml version="1.0" encoding="UTF-8" standalone="no"?>
<!-- Created with Inkscape (http://www.inkscape.org/) -->

<svg
   xmlns:dc="http://purl.org/dc/elements/1.1/"
   xmlns:cc="http://creativecommons.org/ns#"
   xmlns:rdf="http://www.w3.org/1999/02/22-rdf-syntax-ns#"
   xmlns:svg="http://www.w3.org/2000/svg"
   xmlns="http://www.w3.org/2000/svg"
   xmlns:sodipodi="http://sodipodi.sourceforge.net/DTD/sodipodi-0.dtd"
   xmlns:inkscape="http://www.inkscape.org/namespaces/inkscape"
   width="56.960938"
   height="56.492188"
   viewBox="0 0 56.960939 56.492189"
   id="svg2"
   version="1.1"
   inkscape:version="0.92.0 r15299"
   sodipodi:docname="kc_e2bfb1e58696e5b7be.svg">
  <defs
     id="defs4" />
  <sodipodi:namedview
     id="base"
     pagecolor="#ffffff"
     bordercolor="#666666"
     borderopacity="1.0"
     inkscape:pageopacity="0.0"
     inkscape:pageshadow="2"
     inkscape:zoom="5.6"
     inkscape:cx="28.143562"
     inkscape:cy="22.799356"
     inkscape:document-units="px"
     inkscape:current-layer="text4151"
     showgrid="false"
     fit-margin-left="1"
     fit-margin-top="1"
     fit-margin-bottom="1"
     fit-margin-right="1"
     inkscape:window-width="1280"
     inkscape:window-height="755"
     inkscape:window-x="0"
     inkscape:window-y="23"
     inkscape:window-maximized="1"
     units="px" />
  <metadata
     id="metadata7">
    <rdf:RDF>
      <cc:Work
         rdf:about="">
        <dc:format>image/svg+xml</dc:format>
        <dc:type
           rdf:resource="http://purl.org/dc/dcmitype/StillImage" />
        <dc:title />
      </cc:Work>
    </rdf:RDF>
  </metadata>
  <g
     inkscape:label="Layer 1"
     inkscape:groupmode="layer"
     id="layer1"
     transform="translate(-2.2022171,-2.3556061)">
    <flowRoot
       xml:space="preserve"
       id="flowRoot4136"
       style="font-style:normal;font-weight:normal;font-size:25px;line-height:121.00000381%;font-family:sans-serif;text-align:end;letter-spacing:0px;word-spacing:0px;text-anchor:end;fill:#000000;fill-opacity:1;stroke:none;stroke-width:1px;stroke-linecap:butt;stroke-linejoin:miter;stroke-opacity:1"><flowRegion
         id="flowRegion4138"><rect
           id="rect4140"
           width="427.14285"
           height="412.85715"
           x="97.14286"
           y="103.79078" /></flowRegion><flowPara
         id="flowPara4142" /></flowRoot>    <g
       style="font-style:normal;font-variant:normal;font-weight:normal;font-stretch:normal;font-size:30px;line-height:121.00000381%;font-family:FreeSerif;-inkscape-font-specification:FreeSerif;text-align:end;letter-spacing:0px;word-spacing:0px;text-anchor:end;fill:#000000;fill-opacity:1;stroke:none;stroke-width:1px;stroke-linecap:butt;stroke-linejoin:miter;stroke-opacity:1"
       id="text4144">
      <g
         aria-label="帰"
         style="font-style:normal;font-weight:normal;font-size:25px;line-height:121.00000381%;font-family:sans-serif;text-align:end;letter-spacing:0px;word-spacing:0px;text-anchor:end;fill:#000000;fill-opacity:1;stroke:none;stroke-width:1px;stroke-linecap:butt;stroke-linejoin:miter;stroke-opacity:1"
         id="text4151"
         transform="matrix(1.4634017,0,0,1.7981452,-26.559194,-45.773427)">
        <path
           sodipodi:type="inkscape:offset"
           inkscape:radius="-0.35110897"
           inkscape:original="M 21.074219 28.082031 L 21.074219 37.867188 L 25.087891 37.867188 L 25.087891 31.626953 L 36.630859 31.626953 L 36.630859 36.431641 L 25.9375 36.431641 L 25.9375 54.068359 L 29.833984 54.068359 L 29.833984 39.859375 L 36.630859 39.859375 L 36.630859 57.349609 L 40.644531 57.349609 L 40.644531 39.859375 L 48.554688 39.859375 L 48.554688 48.0625 C 48.554687 49.097657 48.056641 49.615234 47.060547 49.615234 C 45.751953 49.615234 44.228515 49.458984 42.490234 49.146484 L 42.929688 53.042969 C 44.941406 53.238278 46.71875 53.335938 48.261719 53.335938 C 51.054688 53.335937 52.451172 52.076172 52.451172 49.556641 L 52.451172 36.431641 L 40.644531 36.431641 L 40.644531 31.626953 L 53.300781 31.626953 L 53.300781 37.867188 L 57.314453 37.867188 L 57.314453 28.082031 L 21.074219 28.082031 z "
           style="font-style:normal;font-variant:normal;font-weight:normal;font-stretch:normal;font-size:60px;font-family:IPAGothic;-inkscape-font-specification:IPAGothic"
           id="path4492"
           d="m 21.425781,28.433594 v 9.082031 h 3.310547 v -5.888672 a 0.35114408,0.35114408 0 0 1 0.351563,-0.351562 h 11.542968 a 0.35114408,0.35114408 0 0 1 0.351563,0.351562 v 4.804688 a 0.35114408,0.35114408 0 0 1 -0.351563,0.351562 H 26.289062 v 16.933594 h 3.19336 V 39.859375 a 0.35114408,0.35114408 0 0 1 0.351562,-0.351563 h 6.796875 a 0.35114408,0.35114408 0 0 1 0.351563,0.351563 v 17.138672 h 3.310547 V 39.859375 a 0.35114408,0.35114408 0 0 1 0.351562,-0.351563 h 7.910157 a 0.35114408,0.35114408 0 0 1 0.351562,0.351563 V 48.0625 c -10e-7,0.573888 -0.142542,1.065144 -0.472656,1.408203 -0.330114,0.34306 -0.814187,0.496094 -1.373047,0.496094 -1.211445,0 -2.616393,-0.149008 -4.169922,-0.408203 l 0.355469,3.15039 c 1.872148,0.174205 3.569146,0.275391 5.015625,0.275391 1.343695,0 2.29445,-0.301612 2.90625,-0.853516 0.611799,-0.551903 0.93164,-1.379322 0.93164,-2.574218 V 36.783203 H 40.644531 a 0.35114408,0.35114408 0 0 1 -0.351562,-0.351562 v -4.804688 a 0.35114408,0.35114408 0 0 1 0.351562,-0.351562 h 12.65625 a 0.35114408,0.35114408 0 0 1 0.351563,0.351562 v 5.888672 h 3.310547 v -9.082031 z" />
      </g>
    </g>
  </g>
</svg>
