<?xml version="1.0" encoding="UTF-8" standalone="no"?>
<!-- Created with Inkscape (http://www.inkscape.org/) -->

<svg
   xmlns:dc="http://purl.org/dc/elements/1.1/"
   xmlns:cc="http://creativecommons.org/ns#"
   xmlns:rdf="http://www.w3.org/1999/02/22-rdf-syntax-ns#"
   xmlns:svg="http://www.w3.org/2000/svg"
   xmlns="http://www.w3.org/2000/svg"
   xmlns:sodipodi="http://sodipodi.sourceforge.net/DTD/sodipodi-0.dtd"
   xmlns:inkscape="http://www.inkscape.org/namespaces/inkscape"
   width="55.597656"
   height="53.967354"
   viewBox="0 0 55.597658 53.967355"
   id="svg2"
   version="1.1"
   inkscape:version="0.91 r13725"
   sodipodi:docname="kc_e2bfbbe794b0e4b99a.svg">
  <defs
     id="defs4" />
  <sodipodi:namedview
     id="base"
     pagecolor="#ffffff"
     bordercolor="#666666"
     borderopacity="1.0"
     inkscape:pageopacity="0.0"
     inkscape:pageshadow="2"
     inkscape:zoom="7.919596"
     inkscape:cx="23.320063"
     inkscape:cy="26.802656"
     inkscape:document-units="px"
     inkscape:current-layer="text4151"
     showgrid="false"
     fit-margin-left="1"
     fit-margin-top="1"
     fit-margin-bottom="1"
     fit-margin-right="1"
     inkscape:window-width="1920"
     inkscape:window-height="1035"
     inkscape:window-x="0"
     inkscape:window-y="23"
     inkscape:window-maximized="1"
     units="px" />
  <metadata
     id="metadata7">
    <rdf:RDF>
      <cc:Work
         rdf:about="">
        <dc:format>image/svg+xml</dc:format>
        <dc:type
           rdf:resource="http://purl.org/dc/dcmitype/StillImage" />
        <dc:title></dc:title>
      </cc:Work>
    </rdf:RDF>
  </metadata>
  <g
     inkscape:label="Layer 1"
     inkscape:groupmode="layer"
     id="layer1"
     transform="translate(-3.0878906,-3.6322549)">
    <flowRoot
       xml:space="preserve"
       id="flowRoot4136"
       style="font-style:normal;font-weight:normal;font-size:25px;line-height:121.00000381%;font-family:sans-serif;text-align:end;letter-spacing:0px;word-spacing:0px;text-anchor:end;fill:#000000;fill-opacity:1;stroke:none;stroke-width:1px;stroke-linecap:butt;stroke-linejoin:miter;stroke-opacity:1"><flowRegion
         id="flowRegion4138"><rect
           id="rect4140"
           width="427.14285"
           height="412.85715"
           x="97.14286"
           y="103.79078" /></flowRegion><flowPara
         id="flowPara4142" /></flowRoot>    <g
       style="font-style:normal;font-variant:normal;font-weight:normal;font-stretch:normal;font-size:30px;line-height:121.00000381%;font-family:FreeSerif;-inkscape-font-specification:FreeSerif;text-align:end;letter-spacing:0px;word-spacing:0px;text-anchor:end;fill:#000000;fill-opacity:1;stroke:none;stroke-width:1px;stroke-linecap:butt;stroke-linejoin:miter;stroke-opacity:1"
       id="text4144">
      <g
         style="font-style:normal;font-weight:normal;font-size:25px;line-height:121.00000381%;font-family:sans-serif;text-align:end;letter-spacing:0px;word-spacing:0px;text-anchor:end;fill:#000000;fill-opacity:1;stroke:none;stroke-width:1px;stroke-linecap:butt;stroke-linejoin:miter;stroke-opacity:1"
         id="text4151">
        <path
           sodipodi:type="inkscape:offset"
           inkscape:radius="-0.57394016"
           inkscape:original="M 3.5136719 13.96875 L 3.5136719 48.048828 L 9.4375 48.048828 L 9.4375 42.037109 L 23.277344 42.037109 L 23.277344 50.730469 C 23.277344 53.411923 24.316614 55.214068 26.392578 56.136719 C 28.064884 56.828707 32.57536 57.173828 39.927734 57.173828 C 49.183075 57.173828 54.561239 56.193055 56.060547 54.232422 C 57.271527 52.704282 58.022218 49.172624 58.310547 43.636719 L 52.341797 41.951172 C 52.168801 46.074268 51.734957 48.582744 51.042969 49.476562 C 50.14915 50.716374 45.955522 51.335938 38.458984 51.335938 C 34.220558 51.335937 31.611176 51.134128 30.630859 50.730469 C 29.564044 50.269144 29.029297 49.260098 29.029297 47.703125 L 29.029297 42.037109 L 49.962891 42.037109 L 49.962891 13.96875 L 3.5136719 13.96875 z M 9.4375 18.769531 L 23.277344 18.769531 L 23.277344 25.472656 L 9.4375 25.472656 L 9.4375 18.769531 z M 29.029297 18.769531 L 44.037109 18.769531 L 44.037109 25.472656 L 29.029297 25.472656 L 29.029297 18.769531 z M 9.4375 30.056641 L 23.277344 30.056641 L 23.277344 37.150391 L 9.4375 37.150391 L 9.4375 30.056641 z M 29.029297 30.056641 L 44.037109 30.056641 L 44.037109 37.150391 L 29.029297 37.150391 L 29.029297 30.056641 z "
           style="font-style:normal;font-variant:normal;font-weight:normal;font-stretch:normal;font-size:60px;font-family:IPAGothic;-inkscape-font-specification:IPAGothic"
           id="path4164"
           d="m 4.0878906,14.542969 0,32.93164 4.7753906,0 0,-5.4375 A 0.57399755,0.57399755 0 0 1 9.4375,41.462891 l 13.839844,0 a 0.57399755,0.57399755 0 0 1 0.574218,0.574218 l 0,8.69336 c 0,2.530071 0.884848,4.037468 2.767579,4.876953 0.701117,0.288434 2.228327,0.563814 4.455078,0.734375 2.232015,0.170964 5.186309,0.257812 8.853515,0.257812 4.607398,0 8.239378,-0.246711 10.871094,-0.726562 2.631716,-0.479851 4.230088,-1.236281 4.806641,-1.990235 a 0.57399755,0.57399755 0 0 1 0.0059,-0.0078 c 0.981388,-1.238416 1.763042,-4.635251 2.074219,-9.818359 l -4.835938,-1.365235 c -0.09071,1.684768 -0.204831,3.222173 -0.396484,4.332032 -0.222605,1.289101 -0.486579,2.190402 -0.953125,2.796874 -0.671768,0.922158 -2.050103,1.303046 -4.189453,1.619141 -2.146115,0.317095 -5.087482,0.470703 -8.851563,0.470703 -2.128322,0 -3.851177,-0.05154 -5.179687,-0.154297 -1.32851,-0.102752 -2.242385,-0.236869 -2.867188,-0.49414 a 0.57399755,0.57399755 0 0 1 -0.0098,-0.0039 c -1.282531,-0.554607 -1.947266,-1.8663 -1.947266,-3.554687 l 0,-5.666016 a 0.57399755,0.57399755 0 0 1 0.574219,-0.574218 l 20.359375,0 0,-26.919922 -45.3007814,0 z m 5.3496094,3.652343 13.839844,0 a 0.57399755,0.57399755 0 0 1 0.574218,0.574219 l 0,6.703125 a 0.57399755,0.57399755 0 0 1 -0.574218,0.574219 l -13.839844,0 A 0.57399755,0.57399755 0 0 1 8.8632812,25.472656 l 0,-6.703125 A 0.57399755,0.57399755 0 0 1 9.4375,18.195312 Z m 19.591797,0 15.007812,0 a 0.57399755,0.57399755 0 0 1 0.574219,0.574219 l 0,6.703125 a 0.57399755,0.57399755 0 0 1 -0.574219,0.574219 l -15.007812,0 a 0.57399755,0.57399755 0 0 1 -0.574219,-0.574219 l 0,-6.703125 a 0.57399755,0.57399755 0 0 1 0.574219,-0.574219 z M 9.4375,29.482422 l 13.839844,0 a 0.57399755,0.57399755 0 0 1 0.574218,0.574219 l 0,7.09375 a 0.57399755,0.57399755 0 0 1 -0.574218,0.574218 l -13.839844,0 A 0.57399755,0.57399755 0 0 1 8.8632812,37.150391 l 0,-7.09375 A 0.57399755,0.57399755 0 0 1 9.4375,29.482422 Z m 19.591797,0 15.007812,0 a 0.57399755,0.57399755 0 0 1 0.574219,0.574219 l 0,7.09375 a 0.57399755,0.57399755 0 0 1 -0.574219,0.574218 l -15.007812,0 a 0.57399755,0.57399755 0 0 1 -0.574219,-0.574218 l 0,-7.09375 a 0.57399755,0.57399755 0 0 1 0.574219,-0.574219 z"
           transform="matrix(1,0,0,1.2356516,0,-13.337788)" />
      </g>
    </g>
  </g>
</svg>
