<?xml version="1.0" encoding="UTF-8" standalone="no"?>
<!-- Created with Inkscape (http://www.inkscape.org/) -->

<svg
   xmlns:dc="http://purl.org/dc/elements/1.1/"
   xmlns:cc="http://creativecommons.org/ns#"
   xmlns:rdf="http://www.w3.org/1999/02/22-rdf-syntax-ns#"
   xmlns:svg="http://www.w3.org/2000/svg"
   xmlns="http://www.w3.org/2000/svg"
   xmlns:sodipodi="http://sodipodi.sourceforge.net/DTD/sodipodi-0.dtd"
   xmlns:inkscape="http://www.inkscape.org/namespaces/inkscape"
   width="56.960938"
   height="56.492188"
   viewBox="0 0 56.960939 56.492189"
   id="svg2"
   version="1.1"
   inkscape:version="0.92.0 r15299"
   sodipodi:docname="kc_e2bfb1e2ba95e6b0ba.svg">
  <defs
     id="defs4" />
  <sodipodi:namedview
     id="base"
     pagecolor="#ffffff"
     bordercolor="#666666"
     borderopacity="1.0"
     inkscape:pageopacity="0.0"
     inkscape:pageshadow="2"
     inkscape:zoom="5.6"
     inkscape:cx="36.524366"
     inkscape:cy="18.026759"
     inkscape:document-units="px"
     inkscape:current-layer="text4151"
     showgrid="false"
     fit-margin-left="1"
     fit-margin-top="1"
     fit-margin-bottom="1"
     fit-margin-right="1"
     inkscape:window-width="1280"
     inkscape:window-height="755"
     inkscape:window-x="0"
     inkscape:window-y="23"
     inkscape:window-maximized="1"
     units="px" />
  <metadata
     id="metadata7">
    <rdf:RDF>
      <cc:Work
         rdf:about="">
        <dc:format>image/svg+xml</dc:format>
        <dc:type
           rdf:resource="http://purl.org/dc/dcmitype/StillImage" />
        <dc:title />
      </cc:Work>
    </rdf:RDF>
  </metadata>
  <g
     inkscape:label="Layer 1"
     inkscape:groupmode="layer"
     id="layer1"
     transform="translate(-2.2022171,-2.3556061)">
    <flowRoot
       xml:space="preserve"
       id="flowRoot4136"
       style="font-style:normal;font-weight:normal;font-size:25px;line-height:121.00000381%;font-family:sans-serif;text-align:end;letter-spacing:0px;word-spacing:0px;text-anchor:end;fill:#000000;fill-opacity:1;stroke:none;stroke-width:1px;stroke-linecap:butt;stroke-linejoin:miter;stroke-opacity:1"><flowRegion
         id="flowRegion4138"><rect
           id="rect4140"
           width="427.14285"
           height="412.85715"
           x="97.14286"
           y="103.79078" /></flowRegion><flowPara
         id="flowPara4142" /></flowRoot>    <g
       style="font-style:normal;font-variant:normal;font-weight:normal;font-stretch:normal;font-size:30px;line-height:121.00000381%;font-family:FreeSerif;-inkscape-font-specification:FreeSerif;text-align:end;letter-spacing:0px;word-spacing:0px;text-anchor:end;fill:#000000;fill-opacity:1;stroke:none;stroke-width:1px;stroke-linecap:butt;stroke-linejoin:miter;stroke-opacity:1"
       id="text4144">
      <g
         aria-label="緑"
         style="font-style:normal;font-weight:normal;font-size:25px;line-height:121.00000381%;font-family:sans-serif;text-align:end;letter-spacing:0px;word-spacing:0px;text-anchor:end;fill:#000000;fill-opacity:1;stroke:none;stroke-width:1px;stroke-linecap:butt;stroke-linejoin:miter;stroke-opacity:1"
         id="text4151"
         transform="matrix(1.4475048,0,0,1,-29.166986,0)">
        <path
           sodipodi:type="inkscape:offset"
           inkscape:radius="-0.12626901"
           inkscape:original="M 28.75 5.8164062 L 28.75 9.3613281 L 46.591797 9.3613281 L 46.591797 14.927734 L 30.361328 14.927734 L 30.361328 18.414062 L 46.591797 18.414062 L 46.591797 24.185547 L 26.113281 24.185547 L 26.113281 27.789062 L 40.029297 27.789062 L 40.029297 51.431641 C 40.029297 52.544922 39.511719 53.101562 38.476562 53.101562 C 36.542968 53.101562 34.775391 52.896485 33.173828 52.486328 L 33.964844 56.763672 C 36.328125 56.958981 38.19336 57.056641 39.560547 57.056641 C 42.470703 57.056641 43.925781 55.738281 43.925781 53.101562 L 43.925781 36.724609 C 46.445312 43.736328 50.292969 49.3125 55.46875 53.453125 L 58.632812 50.054688 C 54.570312 47.066406 51.376953 43.785156 49.052734 40.210938 C 52.080078 37.730469 54.775391 35.191407 57.138672 32.59375 L 53.652344 29.78125 C 51.347657 32.90625 49.238282 35.337891 47.324219 37.076172 C 46.054688 34.654297 44.960938 31.558594 44.042969 27.789062 L 57.988281 27.789062 L 57.988281 24.185547 L 50.546875 24.185547 L 50.546875 5.8164062 L 28.75 5.8164062 z M 31.328125 30.425781 L 28.457031 32.828125 C 30.820312 34.9375 32.998047 37.496093 34.990234 40.503906 L 38.066406 37.632812 C 36.035156 34.996094 33.789062 32.59375 31.328125 30.425781 z M 37.802734 40.210938 C 33.193359 43.980468 28.662109 46.939454 24.208984 49.087891 L 26.464844 52.574219 C 30.878907 50.054688 35.039062 47.134766 38.945312 43.814453 L 37.802734 40.210938 z "
           style="font-style:normal;font-variant:normal;font-weight:normal;font-stretch:normal;font-size:60px;font-family:IPAGothic;-inkscape-font-specification:IPAGothic"
           id="path822"
           d="M 28.876953,5.9433594 V 9.234375 h 17.714844 a 0.12628164,0.12628164 0 0 1 0.126953,0.1269531 v 5.5664059 a 0.12628164,0.12628164 0 0 1 -0.126953,0.126954 H 30.488281 v 3.232421 h 16.103516 a 0.12628164,0.12628164 0 0 1 0.126953,0.126953 v 5.771485 A 0.12628164,0.12628164 0 0 1 46.591797,24.3125 H 26.240234 v 3.349609 h 13.789063 a 0.12628164,0.12628164 0 0 1 0.126953,0.126953 v 23.642579 c 0,0.576208 -0.134501,1.028828 -0.421875,1.33789 -0.287374,0.309063 -0.717601,0.458985 -1.257813,0.458985 -1.867621,0 -3.579179,-0.19623 -5.142578,-0.578125 l 0.738282,3.99414 c 2.309797,0.189174 4.148074,0.285156 5.488281,0.285157 1.43601,0 2.492954,-0.324022 3.189453,-0.955079 0.696499,-0.631056 1.048828,-1.577914 1.048828,-2.873047 V 36.724609 a 0.12628164,0.12628164 0 0 1 0.246094,-0.04297 c 2.498121,6.952136 6.303422,12.480057 11.414062,16.597656 l 2.988282,-3.208985 c -4.018182,-2.97308 -7.188145,-6.235811 -9.5,-9.791015 a 0.12628164,0.12628164 0 0 1 0.02539,-0.166016 c 2.985062,-2.445825 5.643205,-4.949254 7.980469,-7.507812 l -3.279297,-2.644531 c -2.276043,3.076119 -4.365158,5.483051 -6.265625,7.208984 a 0.12628164,0.12628164 0 0 1 -0.195312,-0.03516 c -1.276228,-2.43465 -2.373305,-5.539913 -3.292969,-9.316407 a 0.12628164,0.12628164 0 0 1 0.123047,-0.15625 H 57.861328 V 24.3125 H 50.546875 A 0.12628164,0.12628164 0 0 1 50.419922,24.185547 V 5.9433594 Z m 2.445313,24.6503906 -2.675782,2.240234 c 2.298224,2.0693 4.418659,4.56231 6.363282,7.478516 l 2.884765,-2.691406 C 35.908544,35.054613 33.717742,32.713017 31.322266,30.59375 Z m 6.414062,9.828125 c -4.521453,3.682093 -8.970113,6.589434 -13.345703,8.714844 l 2.113281,3.267578 c 4.345133,-2.488537 8.443358,-5.365589 12.294922,-8.632813 z" />
      </g>
    </g>
  </g>
</svg>
