<?xml version="1.0" encoding="UTF-8" standalone="no"?>
<!-- Created with Inkscape (http://www.inkscape.org/) -->

<svg
   xmlns:dc="http://purl.org/dc/elements/1.1/"
   xmlns:cc="http://creativecommons.org/ns#"
   xmlns:rdf="http://www.w3.org/1999/02/22-rdf-syntax-ns#"
   xmlns:svg="http://www.w3.org/2000/svg"
   xmlns="http://www.w3.org/2000/svg"
   xmlns:sodipodi="http://sodipodi.sourceforge.net/DTD/sodipodi-0.dtd"
   xmlns:inkscape="http://www.inkscape.org/namespaces/inkscape"
   width="51.833984"
   height="44.445312"
   viewBox="0 0 51.833986 44.445314"
   id="svg2"
   version="1.1"
   inkscape:version="0.91 r13725"
   sodipodi:docname="kc_e2bfb1e4b880e58eb6.svg">
  <defs
     id="defs4" />
  <sodipodi:namedview
     id="base"
     pagecolor="#ffffff"
     bordercolor="#666666"
     borderopacity="1.0"
     inkscape:pageopacity="0.0"
     inkscape:pageshadow="2"
     inkscape:zoom="5.6"
     inkscape:cx="17.694622"
     inkscape:cy="18.73965"
     inkscape:document-units="px"
     inkscape:current-layer="text4151"
     showgrid="false"
     fit-margin-left="1"
     fit-margin-top="2"
     fit-margin-bottom="2"
     fit-margin-right="1"
     inkscape:window-width="1280"
     inkscape:window-height="675"
     inkscape:window-x="0"
     inkscape:window-y="23"
     inkscape:window-maximized="1"
     units="px" />
  <metadata
     id="metadata7">
    <rdf:RDF>
      <cc:Work
         rdf:about="">
        <dc:format>image/svg+xml</dc:format>
        <dc:type
           rdf:resource="http://purl.org/dc/dcmitype/StillImage" />
        <dc:title></dc:title>
      </cc:Work>
    </rdf:RDF>
  </metadata>
  <g
     inkscape:label="Layer 1"
     inkscape:groupmode="layer"
     id="layer1"
     transform="translate(-5.0878906,-8.203125)">
    <flowRoot
       xml:space="preserve"
       id="flowRoot4136"
       style="font-style:normal;font-weight:normal;font-size:25px;line-height:121.00000381%;font-family:sans-serif;text-align:end;letter-spacing:0px;word-spacing:0px;text-anchor:end;fill:#000000;fill-opacity:1;stroke:none;stroke-width:1px;stroke-linecap:butt;stroke-linejoin:miter;stroke-opacity:1"><flowRegion
         id="flowRegion4138"><rect
           id="rect4140"
           width="427.14285"
           height="412.85715"
           x="97.14286"
           y="103.79078" /></flowRegion><flowPara
         id="flowPara4142" /></flowRoot>    <g
       style="font-style:normal;font-variant:normal;font-weight:normal;font-stretch:normal;font-size:30px;line-height:121.00000381%;font-family:FreeSerif;-inkscape-font-specification:FreeSerif;text-align:end;letter-spacing:0px;word-spacing:0px;text-anchor:end;fill:#000000;fill-opacity:1;stroke:none;stroke-width:1px;stroke-linecap:butt;stroke-linejoin:miter;stroke-opacity:1"
       id="text4144">
      <g
         style="font-style:normal;font-weight:normal;font-size:25px;line-height:121.00000381%;font-family:sans-serif;text-align:end;letter-spacing:0px;word-spacing:0px;text-anchor:end;fill:#000000;fill-opacity:1;stroke:none;stroke-width:1px;stroke-linecap:butt;stroke-linejoin:miter;stroke-opacity:1"
         id="text4151"
         transform="translate(0,2)">
        <path
           sodipodi:type="inkscape:offset"
           inkscape:radius="-0.89285719"
           inkscape:original="M 5.1953125 7.3105469 L 5.1953125 14.810547 L 23.09375 14.810547 C 20.771556 22.780172 17.870011 31.049989 14.386719 39.621094 L 12.886719 39.734375 C 11.306337 39.847152 9.0005037 39.978527 5.96875 40.128906 L 8.0488281 47.853516 C 22.143259 46.838518 35.189496 45.372299 47.1875 43.455078 C 48.284093 45.635447 49.267851 47.834774 50.138672 50.052734 L 56.378906 45.203125 C 51.024959 34.301279 46.010625 25.749648 41.333984 19.546875 L 35.189453 22.761719 C 38.092197 26.821715 41.060044 31.707804 44.091797 37.421875 C 43.833775 37.421875 43.17176 37.517108 42.107422 37.705078 C 36.656716 38.268967 30.625475 38.718309 24.013672 39.056641 L 21.595703 39.283203 C 21.756968 38.832092 21.933438 38.456991 22.126953 38.15625 C 25.126454 31.464773 27.9968 23.682394 30.738281 14.810547 L 56.814453 14.810547 L 56.814453 7.3105469 L 5.1953125 7.3105469 z "
           style="font-style:normal;font-variant:normal;font-weight:normal;font-stretch:normal;font-size:60px;font-family:IPAGothic;-inkscape-font-specification:IPAGothic"
           id="path4164"
           d="m 6.0878906,8.203125 0,5.714844 17.0058594,0 a 0.89294648,0.89294648 0 0 1 0.857422,1.142578 c -2.331667,8.002136 -5.242729,16.300018 -8.736328,24.896484 a 0.89294648,0.89294648 0 0 1 -0.761719,0.554688 l -1.5,0.113281 a 0.89294648,0.89294648 0 0 1 -0.002,0 c -1.339879,0.09562 -3.4764258,0.212407 -5.8359376,0.333984 l 1.5996094,5.9375 C 22.49717,45.885397 35.293527,44.452345 47.046875,42.574219 a 0.89294648,0.89294648 0 0 1 0.9375,0.480469 c 0.929445,1.848026 1.73436,3.717688 2.503906,5.59375 l 4.75,-3.689454 C 50.184171,34.73689 45.443523,26.662749 41.033203,20.710938 l -4.556641,2.384765 c 2.753775,3.939305 5.55043,8.5294 8.404297,13.908203 a 0.89294648,0.89294648 0 0 1 -0.789062,1.310547 c -0.03833,0 -0.775368,0.08361 -1.828125,0.269531 a 0.89294648,0.89294648 0 0 1 -0.06445,0.0098 c -5.469472,0.56583 -11.516203,1.016491 -18.140625,1.355469 l -2.378906,0.222656 a 0.89294648,0.89294648 0 0 1 -0.923829,-1.189453 c 0.177955,-0.497798 0.378429,-0.931469 0.621094,-1.308594 l -0.06445,0.117188 c 2.980772,-6.649695 5.839202,-14.399534 8.572266,-23.244141 a 0.89294648,0.89294648 0 0 1 0.853515,-0.628906 l 25.183594,0 0,-5.714844 -49.8339844,0 z" />
      </g>
    </g>
  </g>
</svg>
