<?xml version="1.0" encoding="UTF-8" standalone="no"?>
<!-- Created with Inkscape (http://www.inkscape.org/) -->

<svg
   xmlns:dc="http://purl.org/dc/elements/1.1/"
   xmlns:cc="http://creativecommons.org/ns#"
   xmlns:rdf="http://www.w3.org/1999/02/22-rdf-syntax-ns#"
   xmlns:svg="http://www.w3.org/2000/svg"
   xmlns="http://www.w3.org/2000/svg"
   xmlns:sodipodi="http://sodipodi.sourceforge.net/DTD/sodipodi-0.dtd"
   xmlns:inkscape="http://www.inkscape.org/namespaces/inkscape"
   width="51.349331"
   height="58.550781"
   viewBox="0 0 51.349332 58.550783"
   id="svg2"
   version="1.1"
   inkscape:version="0.91 r13725"
   sodipodi:docname="kc_e2bfb1e889b9e99abb.svg">
  <defs
     id="defs4" />
  <sodipodi:namedview
     id="base"
     pagecolor="#ffffff"
     bordercolor="#666666"
     borderopacity="1.0"
     inkscape:pageopacity="0.0"
     inkscape:pageshadow="2"
     inkscape:zoom="5.6"
     inkscape:cx="14.329029"
     inkscape:cy="33.224962"
     inkscape:document-units="px"
     inkscape:current-layer="text4144"
     showgrid="false"
     fit-margin-left="2"
     fit-margin-top="2"
     fit-margin-bottom="2"
     fit-margin-right="2"
     inkscape:window-width="1280"
     inkscape:window-height="675"
     inkscape:window-x="0"
     inkscape:window-y="23"
     inkscape:window-maximized="1"
     units="px" />
  <metadata
     id="metadata7">
    <rdf:RDF>
      <cc:Work
         rdf:about="">
        <dc:format>image/svg+xml</dc:format>
        <dc:type
           rdf:resource="http://purl.org/dc/dcmitype/StillImage" />
        <dc:title></dc:title>
      </cc:Work>
    </rdf:RDF>
  </metadata>
  <g
     inkscape:label="Layer 1"
     inkscape:groupmode="layer"
     id="layer1"
     transform="translate(-5.048199,-1.5313873)">
    <flowRoot
       xml:space="preserve"
       id="flowRoot4136"
       style="font-style:normal;font-weight:normal;font-size:25px;line-height:121.00000381%;font-family:sans-serif;text-align:end;letter-spacing:0px;word-spacing:0px;text-anchor:end;fill:#000000;fill-opacity:1;stroke:none;stroke-width:1px;stroke-linecap:butt;stroke-linejoin:miter;stroke-opacity:1"><flowRegion
         id="flowRegion4138"><rect
           id="rect4140"
           width="427.14285"
           height="412.85715"
           x="97.14286"
           y="103.79078" /></flowRegion><flowPara
         id="flowPara4142" /></flowRoot>    <g
       style="font-style:normal;font-variant:normal;font-weight:normal;font-stretch:normal;font-size:30px;line-height:121.00000381%;font-family:FreeSerif;-inkscape-font-specification:FreeSerif;text-align:end;letter-spacing:0px;word-spacing:0px;text-anchor:end;fill:#000000;fill-opacity:1;stroke:none;stroke-width:1px;stroke-linecap:butt;stroke-linejoin:miter;stroke-opacity:1"
       id="text4144">
      <g
         style="font-style:normal;font-weight:normal;font-size:25px;line-height:121.00000381%;font-family:sans-serif;text-align:end;letter-spacing:0px;word-spacing:0px;text-anchor:end;fill:#000000;fill-opacity:1;stroke:none;stroke-width:1px;stroke-linecap:butt;stroke-linejoin:miter;stroke-opacity:1"
         id="text4151"
         transform="translate(-4,0)">
        <path
           d="m 39.359445,18.062637 15.876779,0 0,2.8125 -16.614416,0 0,2.871094 13.663864,0 0,2.753906 -13.663864,0 0,2.841797 13.663864,0 0,2.753906 -13.663864,0 0,2.958985 17.633059,0 0,2.871094 -38.146419,0 0,-12.158204 c -1.311356,1.289063 -2.751507,2.558594 -4.320451,3.808594 L 11.048199,26.793106 C 16.082871,22.7892 19.630558,18.541153 21.691261,14.048965 l 2.318291,0.527344 0,-2.929687 -10.291805,0 0,-3.3691409 10.291805,0 0,-4.7460938 4.671706,0 0,4.7460938 11.3807,0 0,-4.7460938 4.741958,0 0,4.7460938 11.450951,0 0,3.3691409 -11.450951,0 0,3.603515 -3.582812,0 c -0.56201,0.976563 -1.182563,1.914063 -1.861659,2.8125 z m -14.928387,0 10.291807,0 c 0.02341,-0.01953 0.07026,-0.07813 0.140501,-0.175781 0.04683,-0.09766 0.105377,-0.175781 0.175629,-0.234375 0.655678,-1.132813 1.252813,-2.353516 1.791406,-3.662109 l 3.231557,0.791015 0,-3.134765 -11.3807,0 0,3.603515 -2.599295,0 -0.421508,0.732422 c -0.210753,0.292969 -0.444924,0.683594 -0.702511,1.171875 -0.257589,0.488281 -0.433217,0.791016 -0.526886,0.908203 z m 9.870299,2.8125 -11.731956,0 0,2.871094 11.731956,0 z m -11.731956,5.625 0,2.841797 11.731956,0 0,-2.841797 z m 0,5.595703 0,2.958985 11.731956,0 0,-2.958985 z m 19.213713,17.753907 c 4.496078,1.464843 10.034218,2.626953 16.614416,3.486328 l -3.512562,3.83789 c -6.41628,-1.445312 -12.17688,-3.124999 -17.281803,-5.039062 l -0.351256,-0.175781 c -6.767535,2.8125 -14.02683,4.853516 -21.777883,6.123047 L 12.593727,54.478653 C 20.134025,53.580216 26.819601,52.076309 32.650453,49.966934 28.388545,48.072403 24.770607,45.9142 21.796638,43.492325 l -5.760602,0 0,-3.105469 35.160742,0 2.037286,1.728516 c -3.465727,3.046875 -7.282711,5.625 -11.45095,7.734375 z m -4.741958,-1.669922 c 3.020802,-1.425781 5.725474,-2.988281 8.114017,-4.6875 l -17.457432,0 c 2.552462,1.640625 5.666932,3.203125 9.343415,4.6875 z"
           style="font-style:normal;font-variant:normal;font-weight:normal;font-stretch:normal;font-size:60px;font-family:IPAGothic;-inkscape-font-specification:IPAGothic"
           id="path4160"
           inkscape:connector-curvature="0"
           sodipodi:nodetypes="cccccccccccccccccccccccccccccccccccccccccccccccccscccccccccccccccccccccccccccccccccc" />
      </g>
    </g>
  </g>
</svg>
