<?xml version="1.0" encoding="UTF-8" standalone="no"?>
<!-- Created with Inkscape (http://www.inkscape.org/) -->

<svg
   xmlns:dc="http://purl.org/dc/elements/1.1/"
   xmlns:cc="http://creativecommons.org/ns#"
   xmlns:rdf="http://www.w3.org/1999/02/22-rdf-syntax-ns#"
   xmlns:svg="http://www.w3.org/2000/svg"
   xmlns="http://www.w3.org/2000/svg"
   xmlns:sodipodi="http://sodipodi.sourceforge.net/DTD/sodipodi-0.dtd"
   xmlns:inkscape="http://www.inkscape.org/namespaces/inkscape"
   width="56.960938"
   height="56.492188"
   viewBox="0 0 56.960939 56.492189"
   id="svg2"
   version="1.1"
   inkscape:version="0.92.0 r15299"
   sodipodi:docname="kc_e2bfbbe2ba95e4ba85.svg">
  <defs
     id="defs4" />
  <sodipodi:namedview
     id="base"
     pagecolor="#ffffff"
     bordercolor="#666666"
     borderopacity="1.0"
     inkscape:pageopacity="0.0"
     inkscape:pageshadow="2"
     inkscape:zoom="5.6"
     inkscape:cx="31.905898"
     inkscape:cy="24.652716"
     inkscape:document-units="px"
     inkscape:current-layer="text4144"
     showgrid="false"
     fit-margin-left="1"
     fit-margin-top="1"
     fit-margin-bottom="1"
     fit-margin-right="1"
     inkscape:window-width="1280"
     inkscape:window-height="755"
     inkscape:window-x="0"
     inkscape:window-y="23"
     inkscape:window-maximized="1"
     units="px"
     inkscape:measure-start="0,0"
     inkscape:measure-end="0,0"
     inkscape:snap-global="true"
     inkscape:object-paths="true" />
  <metadata
     id="metadata7">
    <rdf:RDF>
      <cc:Work
         rdf:about="">
        <dc:format>image/svg+xml</dc:format>
        <dc:type
           rdf:resource="http://purl.org/dc/dcmitype/StillImage" />
        <dc:title />
      </cc:Work>
    </rdf:RDF>
  </metadata>
  <g
     inkscape:label="Layer 1"
     inkscape:groupmode="layer"
     id="layer1"
     transform="translate(-2.2022171,-2.3556061)">
    <flowRoot
       xml:space="preserve"
       id="flowRoot4136"
       style="font-style:normal;font-weight:normal;font-size:25px;line-height:121.00000381%;font-family:sans-serif;text-align:end;letter-spacing:0px;word-spacing:0px;text-anchor:end;fill:#000000;fill-opacity:1;stroke:none;stroke-width:1px;stroke-linecap:butt;stroke-linejoin:miter;stroke-opacity:1"><flowRegion
         id="flowRegion4138"><rect
           id="rect4140"
           width="427.14285"
           height="412.85715"
           x="97.14286"
           y="103.79078" /></flowRegion><flowPara
         id="flowPara4142" /></flowRoot>    <g
       style="font-style:normal;font-variant:normal;font-weight:normal;font-stretch:normal;font-size:30px;line-height:121.00000381%;font-family:FreeSerif;-inkscape-font-specification:FreeSerif;text-align:end;letter-spacing:0px;word-spacing:0px;text-anchor:end;fill:#000000;fill-opacity:1;stroke:none;stroke-width:1px;stroke-linecap:butt;stroke-linejoin:miter;stroke-opacity:1"
       id="text4144">
      <path
         sodipodi:type="inkscape:offset"
         inkscape:radius="-0.37880725"
         inkscape:original="M 12.783203 5.3398438 L 12.783203 7.0996094 L 12.783203 10.371094 L 29.101562 10.371094 L 29.101562 18.632812 L 3.8476562 18.632812 L 3.8476562 23.828125 L 29.101562 23.828125 L 29.101562 32.621094 L 10.615234 32.621094 L 10.615234 37.652344 L 29.101562 37.652344 L 29.101562 48.777344 C 29.101562 50.631572 28.378906 51.558594 26.933594 51.558594 C 24.453125 51.558594 21.660157 51.136327 18.554688 50.291016 L 19.257812 56.589844 C 22.109375 57.135206 24.853516 57.408203 27.490234 57.408203 C 31.357422 57.408203 33.291016 55.294911 33.291016 51.068359 L 33.291016 37.652344 L 46.035156 37.652344 L 46.035156 42.683594 L 50.107422 42.683594 L 50.107422 23.828125 L 57.841797 23.828125 L 57.841797 18.632812 L 50.107422 18.632812 L 50.107422 5.3398438 L 33.90625 5.3398438 L 28.251953 5.3398438 L 14.335938 5.3398438 L 12.783203 5.3398438 z M 33.291016 10.371094 L 46.035156 10.371094 L 46.035156 18.632812 L 33.291016 18.632812 L 33.291016 10.371094 z M 33.291016 23.828125 L 46.035156 23.828125 L 46.035156 32.621094 L 33.291016 32.621094 L 33.291016 23.828125 z "
         style="font-style:normal;font-variant:normal;font-weight:normal;font-stretch:normal;font-size:60px;line-height:121.00000381%;font-family:IPAGothic;-inkscape-font-specification:IPAGothic;text-align:end;letter-spacing:0px;word-spacing:0px;text-anchor:end;fill:#000000;fill-opacity:1;stroke:none;stroke-width:1.18157768px;stroke-linecap:butt;stroke-linejoin:miter;stroke-opacity:1"
         id="path822"
         d="m 13.162109,5.71875 v 1.3808594 2.8925781 h 15.939453 a 0.37884513,0.37884513 0 0 1 0.378907,0.3789065 v 8.261718 a 0.37884513,0.37884513 0 0 1 -0.378907,0.378907 H 4.2265625 v 4.4375 H 29.101562 a 0.37884513,0.37884513 0 0 1 0.378907,0.378906 v 8.792969 A 0.37884513,0.37884513 0 0 1 29.101562,33 H 10.994141 v 4.273438 h 18.107421 a 0.37884513,0.37884513 0 0 1 0.378907,0.378906 v 11.125 c 0,0.976325 -0.186436,1.758247 -0.623047,2.318359 -0.436611,0.560112 -1.120183,0.841797 -1.923828,0.841797 -2.372289,0 -5.035099,-0.412711 -7.94336,-1.166016 l 0.613282,5.488282 c 2.729747,0.506074 5.36251,0.769531 7.886718,0.769531 1.864592,0 3.188418,-0.497087 4.070313,-1.460938 0.881895,-0.96385 1.351562,-2.44449 1.351562,-4.5 V 37.652344 a 0.37884513,0.37884513 0 0 1 0.378907,-0.378906 h 12.74414 a 0.37884513,0.37884513 0 0 1 0.378906,0.378906 v 4.652344 h 3.314454 V 23.828125 a 0.37884513,0.37884513 0 0 1 0.378906,-0.378906 h 7.355469 v -4.4375 H 50.107422 A 0.37884513,0.37884513 0 0 1 49.728516,18.632812 V 5.71875 H 33.90625 28.251953 14.335938 Z m 20.128907,4.2734375 h 12.74414 a 0.37884513,0.37884513 0 0 1 0.378906,0.3789065 v 8.261718 a 0.37884513,0.37884513 0 0 1 -0.378906,0.378907 h -12.74414 a 0.37884513,0.37884513 0 0 1 -0.378907,-0.378907 v -8.261718 a 0.37884513,0.37884513 0 0 1 0.378907,-0.3789065 z m 0,13.4570315 h 12.74414 a 0.37884513,0.37884513 0 0 1 0.378906,0.378906 v 8.792969 A 0.37884513,0.37884513 0 0 1 46.035156,33 h -12.74414 a 0.37884513,0.37884513 0 0 1 -0.378907,-0.378906 v -8.792969 a 0.37884513,0.37884513 0 0 1 0.378907,-0.378906 z" />
    </g>
  </g>
</svg>
