<?xml version="1.0" encoding="UTF-8" standalone="no"?>
<!-- Created with Inkscape (http://www.inkscape.org/) -->

<svg
   xmlns:dc="http://purl.org/dc/elements/1.1/"
   xmlns:cc="http://creativecommons.org/ns#"
   xmlns:rdf="http://www.w3.org/1999/02/22-rdf-syntax-ns#"
   xmlns:svg="http://www.w3.org/2000/svg"
   xmlns="http://www.w3.org/2000/svg"
   xmlns:sodipodi="http://sodipodi.sourceforge.net/DTD/sodipodi-0.dtd"
   xmlns:inkscape="http://www.inkscape.org/namespaces/inkscape"
   width="41.785156"
   height="56.667969"
   viewBox="0 0 41.785157 56.66797"
   id="svg2"
   version="1.1"
   inkscape:version="0.91 r13725"
   sodipodi:docname="kc_e2bfb3e2bfb0e4b8bfe4b880e697a5e5a482.svg">
  <defs
     id="defs4" />
  <sodipodi:namedview
     id="base"
     pagecolor="#ffffff"
     bordercolor="#666666"
     borderopacity="1.0"
     inkscape:pageopacity="0.0"
     inkscape:pageshadow="2"
     inkscape:zoom="11.2"
     inkscape:cx="17.471097"
     inkscape:cy="24.975789"
     inkscape:document-units="px"
     inkscape:current-layer="text4144"
     showgrid="false"
     fit-margin-left="1"
     fit-margin-top="1"
     fit-margin-bottom="1"
     fit-margin-right="1"
     inkscape:window-width="1920"
     inkscape:window-height="1035"
     inkscape:window-x="0"
     inkscape:window-y="23"
     inkscape:window-maximized="1"
     units="px" />
  <metadata
     id="metadata7">
    <rdf:RDF>
      <cc:Work
         rdf:about="">
        <dc:format>image/svg+xml</dc:format>
        <dc:type
           rdf:resource="http://purl.org/dc/dcmitype/StillImage" />
        <dc:title></dc:title>
      </cc:Work>
    </rdf:RDF>
  </metadata>
  <g
     inkscape:label="Layer 1"
     inkscape:groupmode="layer"
     id="layer1"
     transform="translate(-17.612373,-2.5313873)">
    <flowRoot
       xml:space="preserve"
       id="flowRoot4136"
       style="font-style:normal;font-weight:normal;font-size:25px;line-height:121.00000381%;font-family:sans-serif;text-align:end;letter-spacing:0px;word-spacing:0px;text-anchor:end;fill:#000000;fill-opacity:1;stroke:none;stroke-width:1px;stroke-linecap:butt;stroke-linejoin:miter;stroke-opacity:1"><flowRegion
         id="flowRegion4138"><rect
           id="rect4140"
           width="427.14285"
           height="412.85715"
           x="97.14286"
           y="103.79078" /></flowRegion><flowPara
         id="flowPara4142" /></flowRoot>    <g
       style="font-style:normal;font-variant:normal;font-weight:normal;font-stretch:normal;font-size:30px;line-height:121.00000381%;font-family:FreeSerif;-inkscape-font-specification:FreeSerif;text-align:end;letter-spacing:0px;word-spacing:0px;text-anchor:end;fill:#000000;fill-opacity:1;stroke:none;stroke-width:1px;stroke-linecap:butt;stroke-linejoin:miter;stroke-opacity:1"
       id="text4144">
      <g
         style="font-style:normal;font-weight:normal;font-size:25px;line-height:121.00000381%;font-family:sans-serif;text-align:end;letter-spacing:0px;word-spacing:0px;text-anchor:end;fill:#000000;fill-opacity:1;stroke:none;stroke-width:1px;stroke-linecap:butt;stroke-linejoin:miter;stroke-opacity:1"
         id="text4151">
        <path
           d="m 36.073311,33.443497 c -0.546875,0.957031 -1.328125,2.089844 -2.34375,3.398437 l 16.289062,0 1.962891,1.552735 c -2.695313,3.90625 -5.576172,7.216797 -8.642578,9.93164 4.316406,2.03125 9.335937,3.544922 15.058594,4.541016 l -2.695313,4.013672 C 50.057686,55.650528 44.833076,53.638809 40.028389,50.84584 c -5.507813,3.535157 -11.78711,5.986329 -18.837891,7.353516 l -2.578125,-3.574219 c 7.363281,-1.152343 13.369141,-3.154296 18.017578,-6.005859 -2.988281,-2.304687 -5.390624,-4.609375 -7.207031,-6.914063 -2.011719,2.011719 -4.492187,3.837891 -7.441406,5.478516 l -2.578125,-3.017578 c 5.410156,-2.8125 9.501953,-6.386719 12.275391,-10.722656 l -5.859375,0 0,-16.230469 c -0.996094,1.289063 -2.09961,2.529297 -3.310547,3.720703 l -2.988282,-2.871094 c 4.179688,-4.199219 7.216798,-9.0429686 9.111329,-14.5312497 l 4.248046,1.0839844 c -0.605469,1.7382813 -1.259765,3.28125 -1.96289,4.6289063 l 25.019531,0 0,3.486328 -26.953125,0 c -0.878906,1.386719 -1.679687,2.539062 -2.402344,3.457031 l 25.048828,0 0,17.25586 z m -6.357422,-14.003907 0,3.720704 18.017578,0 0,-3.720704 z m 0,6.767579 0,3.925781 18.017578,0 0,-3.925781 z m 10.078125,20.126953 c 2.675781,-2.109375 4.619141,-4.150391 5.830078,-6.123047 l -13.037109,0 c 1.660156,2.011719 3.945312,3.974609 6.855468,5.888672 z"
           style="font-style:normal;font-variant:normal;font-weight:normal;font-stretch:normal;font-size:60px;font-family:IPAGothic;-inkscape-font-specification:IPAGothic"
           id="path4209"
           inkscape:connector-curvature="0"
           sodipodi:nodetypes="cccccccccccccccccccccccccccccccccccccccccccc" />
      </g>
    </g>
  </g>
</svg>
