<?xml version="1.0" encoding="UTF-8" standalone="no"?>
<!-- Created with Inkscape (http://www.inkscape.org/) -->

<svg
   xmlns:dc="http://purl.org/dc/elements/1.1/"
   xmlns:cc="http://creativecommons.org/ns#"
   xmlns:rdf="http://www.w3.org/1999/02/22-rdf-syntax-ns#"
   xmlns:svg="http://www.w3.org/2000/svg"
   xmlns="http://www.w3.org/2000/svg"
   xmlns:sodipodi="http://sodipodi.sourceforge.net/DTD/sodipodi-0.dtd"
   xmlns:inkscape="http://www.inkscape.org/namespaces/inkscape"
   width="41.375"
   height="55.994141"
   viewBox="0 0 41.375001 55.994142"
   id="svg2"
   version="1.1"
   inkscape:version="0.91 r13725"
   sodipodi:docname="e2bfb1e7ab8be2bfb5e58682e58fa4.svg">
  <defs
     id="defs4" />
  <sodipodi:namedview
     id="base"
     pagecolor="#ffffff"
     bordercolor="#666666"
     borderopacity="1.0"
     inkscape:pageopacity="0.0"
     inkscape:pageshadow="2"
     inkscape:zoom="11.2"
     inkscape:cx="10.624241"
     inkscape:cy="25.233129"
     inkscape:document-units="px"
     inkscape:current-layer="text4144"
     showgrid="false"
     fit-margin-left="1"
     fit-margin-top="1"
     fit-margin-bottom="1"
     fit-margin-right="1"
     inkscape:window-width="1920"
     inkscape:window-height="1035"
     inkscape:window-x="0"
     inkscape:window-y="23"
     inkscape:window-maximized="1"
     units="px" />
  <metadata
     id="metadata7">
    <rdf:RDF>
      <cc:Work
         rdf:about="">
        <dc:format>image/svg+xml</dc:format>
        <dc:type
           rdf:resource="http://purl.org/dc/dcmitype/StillImage" />
        <dc:title></dc:title>
      </cc:Work>
    </rdf:RDF>
  </metadata>
  <g
     inkscape:label="Layer 1"
     inkscape:groupmode="layer"
     id="layer1"
     transform="translate(-16.879951,-2.3556061)">
    <flowRoot
       xml:space="preserve"
       id="flowRoot4136"
       style="font-style:normal;font-weight:normal;font-size:25px;line-height:121.00000381%;font-family:sans-serif;text-align:end;letter-spacing:0px;word-spacing:0px;text-anchor:end;fill:#000000;fill-opacity:1;stroke:none;stroke-width:1px;stroke-linecap:butt;stroke-linejoin:miter;stroke-opacity:1"><flowRegion
         id="flowRegion4138"><rect
           id="rect4140"
           width="427.14285"
           height="412.85715"
           x="97.14286"
           y="103.79078" /></flowRegion><flowPara
         id="flowPara4142" /></flowRoot>    <g
       style="font-style:normal;font-variant:normal;font-weight:normal;font-stretch:normal;font-size:30px;line-height:121.00000381%;font-family:FreeSerif;-inkscape-font-specification:FreeSerif;text-align:end;letter-spacing:0px;word-spacing:0px;text-anchor:end;fill:#000000;fill-opacity:1;stroke:none;stroke-width:1px;stroke-linecap:butt;stroke-linejoin:miter;stroke-opacity:1"
       id="text4144">
      <g
         style="font-style:normal;font-variant:normal;font-weight:normal;font-stretch:normal;font-size:25px;line-height:121.00000381%;font-family:IPAGothic;-inkscape-font-specification:IPAGothic;text-align:end;letter-spacing:0px;word-spacing:0px;text-anchor:end;fill:#000000;fill-opacity:1;stroke:none;stroke-width:1px;stroke-linecap:butt;stroke-linejoin:miter;stroke-opacity:1"
         id="text4151">
        <path
           d="m 55.145576,21.373184 0,31.230469 c 0,1.738281 -0.419922,2.900391 -1.259765,3.486328 -0.683594,0.527344 -1.94336,0.791016 -3.779297,0.791016 -2.539063,0 -4.833985,-0.126953 -6.884766,-0.38086 l -0.732422,-4.30664 c 2.910157,0.449219 5.205079,0.673828 6.884766,0.673828 1.09375,0 1.640625,-0.585938 1.640625,-1.757813 l 0,-26.308593 -11.337891,0 0,4.365234 9.169922,0 0,3.193359 -9.169922,0 0,4.13086 6.47461,0 0,12.27539 -12.890625,0 0,3.544922 -3.837891,0 0,-15.820312 6.47461,0 0,-4.13086 -9.199219,0 0,-3.193359 9.199219,0 0,-4.365234 -11.367188,0 0,32.548828 -4.130859,0 0,-35.976563 9.140625,0 C 28.583077,18.384903 27.61628,15.865371 26.639717,13.81459 l -8.759766,0 0,-3.603515 17.72461,0 0,-6.8554689 4.248047,0 0,6.8554689 17.402343,0 0,3.603515 -9.140625,0 c -0.800781,2.8125 -1.718749,5.332031 -2.753906,7.558594 z m -13.857421,0 c 0.898437,-2.246093 1.71875,-4.765625 2.460937,-7.558594 l -12.714844,0 c 1.015625,2.207031 1.914063,4.726563 2.695313,7.558594 z m -8.027344,18.164063 0,6.18164 9.052734,0 0,-6.18164 z"
           style="font-style:normal;font-variant:normal;font-weight:normal;font-stretch:normal;font-size:60px;font-family:IPAGothic;-inkscape-font-specification:IPAGothic"
           id="path4454"
           inkscape:connector-curvature="0"
           sodipodi:nodetypes="cscsccsscccccccccccccccccccccccccccccccccccccccccccccc" />
      </g>
    </g>
  </g>
</svg>
