<?xml version="1.0" encoding="UTF-8" standalone="no"?>
<!-- Created with Inkscape (http://www.inkscape.org/) -->

<svg
   xmlns:dc="http://purl.org/dc/elements/1.1/"
   xmlns:cc="http://creativecommons.org/ns#"
   xmlns:rdf="http://www.w3.org/1999/02/22-rdf-syntax-ns#"
   xmlns:svg="http://www.w3.org/2000/svg"
   xmlns="http://www.w3.org/2000/svg"
   xmlns:sodipodi="http://sodipodi.sourceforge.net/DTD/sodipodi-0.dtd"
   xmlns:inkscape="http://www.inkscape.org/namespaces/inkscape"
   width="41.316406"
   height="53.767578"
   viewBox="0 0 41.316407 53.76758"
   id="svg2"
   version="1.1"
   inkscape:version="0.91 r13725"
   sodipodi:docname="e2bfb1e697a5e58c82.svg">
  <defs
     id="defs4" />
  <sodipodi:namedview
     id="base"
     pagecolor="#ffffff"
     bordercolor="#666666"
     borderopacity="1.0"
     inkscape:pageopacity="0.0"
     inkscape:pageshadow="2"
     inkscape:zoom="11.2"
     inkscape:cx="17.884006"
     inkscape:cy="25.057347"
     inkscape:document-units="px"
     inkscape:current-layer="text4151"
     showgrid="false"
     fit-margin-left="1"
     fit-margin-top="1"
     fit-margin-bottom="1"
     fit-margin-right="1"
     inkscape:window-width="1920"
     inkscape:window-height="1035"
     inkscape:window-x="0"
     inkscape:window-y="23"
     inkscape:window-maximized="1"
     units="px" />
  <metadata
     id="metadata7">
    <rdf:RDF>
      <cc:Work
         rdf:about="">
        <dc:format>image/svg+xml</dc:format>
        <dc:type
           rdf:resource="http://purl.org/dc/dcmitype/StillImage" />
        <dc:title></dc:title>
      </cc:Work>
    </rdf:RDF>
  </metadata>
  <g
     inkscape:label="Layer 1"
     inkscape:groupmode="layer"
     id="layer1"
     transform="translate(-9.620186,-4.4063873)">
    <flowRoot
       xml:space="preserve"
       id="flowRoot4136"
       style="font-style:normal;font-weight:normal;font-size:25px;line-height:121.00000381%;font-family:sans-serif;text-align:end;letter-spacing:0px;word-spacing:0px;text-anchor:end;fill:#000000;fill-opacity:1;stroke:none;stroke-width:1px;stroke-linecap:butt;stroke-linejoin:miter;stroke-opacity:1"><flowRegion
         id="flowRegion4138"><rect
           id="rect4140"
           width="427.14285"
           height="412.85715"
           x="97.14286"
           y="103.79078" /></flowRegion><flowPara
         id="flowPara4142" /></flowRoot>    <g
       style="font-style:normal;font-variant:normal;font-weight:normal;font-stretch:normal;font-size:30px;line-height:121.00000381%;font-family:FreeSerif;-inkscape-font-specification:FreeSerif;text-align:end;letter-spacing:0px;word-spacing:0px;text-anchor:end;fill:#000000;fill-opacity:1;stroke:none;stroke-width:1px;stroke-linecap:butt;stroke-linejoin:miter;stroke-opacity:1"
       id="text4144">
      <g
         style="font-style:normal;font-weight:normal;font-size:25px;line-height:121.00000381%;font-family:sans-serif;text-align:end;letter-spacing:0px;word-spacing:0px;text-anchor:end;fill:#000000;fill-opacity:1;stroke:none;stroke-width:1px;stroke-linecap:butt;stroke-linejoin:miter;stroke-opacity:1"
         id="text4151">
        <path
           d="m 19.995186,37.076309 2.34375,0 0,3.105469 c 4.257813,-0.761719 8.28125,-1.953125 12.070312,-3.574219 l 2.988282,3.046875 c -4.667969,1.640625 -9.687501,2.919922 -15.058594,3.837891 l 0,1.552734 c 0,0.878907 0.341797,1.445313 1.02539,1.699219 0.722657,0.195313 2.460938,0.292969 5.214844,0.292969 3.90625,0 6.191406,-0.244141 6.855469,-0.732422 0.546875,-0.371094 0.878906,-1.845703 0.996094,-4.423828 l 3.984375,1.142578 c -0.429688,3.242187 -0.84961,5.15625 -1.259766,5.742187 -0.917969,1.289063 -4.501953,1.933594 -10.751953,1.933594 -4.472656,0 -7.255859,-0.263672 -8.349609,-0.791016 -1.074219,-0.527343 -1.611329,-1.562499 -1.611329,-3.105468 l 0,-7.998047 c -1.347656,1.425781 -3.027343,2.949219 -5.039062,4.570312 L 10.620186,40.06459 c 5.117187,-3.515625 9.121094,-8.203125 12.011719,-14.0625 l -6.240235,0 0,-20.5957027 28.740235,0 0,20.5957027 -17.988282,0 c -0.664062,1.445313 -1.445312,2.939453 -2.34375,4.482422 l 25.136719,0 c -0.410156,12.070313 -1.09375,19.648438 -2.050781,22.734375 -0.507813,1.660157 -1.425781,2.773438 -2.753906,3.339844 -0.859375,0.410156 -2.353516,0.615234 -4.482422,0.615234 -2.949219,0 -5.673828,-0.117187 -8.173828,-0.351562 l -0.84961,-4.453125 c 3.183594,0.566406 5.927735,0.849609 8.232422,0.849609 2.304687,0 3.701172,-0.878906 4.189453,-2.636718 0.703125,-2.832031 1.201172,-8.134766 1.494141,-15.908204 l 0,-0.644531 -23.085938,0 c -1.035156,1.347657 -1.855468,2.363282 -2.460937,3.046875 z m 0.644531,-28.2421873 0,5.0976563 20.244141,0 0,-5.0976563 z m 0,8.3496093 0,5.449219 20.244141,0 0,-5.449219 z"
           style="font-style:normal;font-variant:normal;font-weight:normal;font-stretch:normal;font-size:60px;font-family:IPAGothic;-inkscape-font-specification:IPAGothic"
           id="path4496"
           inkscape:connector-curvature="0"
           sodipodi:nodetypes="ccccccscsccccscscccccccccccccsccsccccccccccccccc" />
      </g>
    </g>
  </g>
</svg>
