<?xml version="1.0" encoding="UTF-8" standalone="no"?>
<!-- Created with Inkscape (http://www.inkscape.org/) -->

<svg
   xmlns:dc="http://purl.org/dc/elements/1.1/"
   xmlns:cc="http://creativecommons.org/ns#"
   xmlns:rdf="http://www.w3.org/1999/02/22-rdf-syntax-ns#"
   xmlns:svg="http://www.w3.org/2000/svg"
   xmlns="http://www.w3.org/2000/svg"
   xmlns:sodipodi="http://sodipodi.sourceforge.net/DTD/sodipodi-0.dtd"
   xmlns:inkscape="http://www.inkscape.org/namespaces/inkscape"
   width="47.05859"
   height="53.505428"
   viewBox="0 0 47.058591 53.50543"
   id="svg2"
   version="1.1"
   inkscape:version="0.91 r13725"
   sodipodi:docname="e2bfb0e69c88e2ba89.svg">
  <defs
     id="defs4" />
  <sodipodi:namedview
     id="base"
     pagecolor="#ffffff"
     bordercolor="#666666"
     borderopacity="1.0"
     inkscape:pageopacity="0.0"
     inkscape:pageshadow="2"
     inkscape:zoom="11.2"
     inkscape:cx="33.720057"
     inkscape:cy="23.695108"
     inkscape:document-units="px"
     inkscape:current-layer="text4151"
     showgrid="false"
     fit-margin-left="1"
     fit-margin-top="1"
     fit-margin-bottom="1"
     fit-margin-right="1"
     inkscape:window-width="1920"
     inkscape:window-height="1035"
     inkscape:window-x="0"
     inkscape:window-y="23"
     inkscape:window-maximized="1"
     units="px" />
  <metadata
     id="metadata7">
    <rdf:RDF>
      <cc:Work
         rdf:about="">
        <dc:format>image/svg+xml</dc:format>
        <dc:type
           rdf:resource="http://purl.org/dc/dcmitype/StillImage" />
        <dc:title></dc:title>
      </cc:Work>
    </rdf:RDF>
  </metadata>
  <g
     inkscape:label="Layer 1"
     inkscape:groupmode="layer"
     id="layer1"
     transform="translate(-7.2998817,-4.2193185)">
    <flowRoot
       xml:space="preserve"
       id="flowRoot4136"
       style="font-style:normal;font-weight:normal;font-size:25px;line-height:121.00000381%;font-family:sans-serif;text-align:end;letter-spacing:0px;word-spacing:0px;text-anchor:end;fill:#000000;fill-opacity:1;stroke:none;stroke-width:1px;stroke-linecap:butt;stroke-linejoin:miter;stroke-opacity:1"><flowRegion
         id="flowRegion4138"><rect
           id="rect4140"
           width="427.14285"
           height="412.85715"
           x="97.14286"
           y="103.79078" /></flowRegion><flowPara
         id="flowPara4142" /></flowRoot>    <g
       style="font-style:normal;font-variant:normal;font-weight:normal;font-stretch:normal;font-size:30px;line-height:121.00000381%;font-family:FreeSerif;-inkscape-font-specification:FreeSerif;text-align:end;letter-spacing:0px;word-spacing:0px;text-anchor:end;fill:#000000;fill-opacity:1;stroke:none;stroke-width:1px;stroke-linecap:butt;stroke-linejoin:miter;stroke-opacity:1"
       id="text4144">
      <g
         transform="scale(0.83949823,1.1911877)"
         style="font-style:normal;font-weight:normal;font-size:29.7796936px;line-height:121.00000381%;font-family:sans-serif;text-align:end;letter-spacing:0px;word-spacing:0px;text-anchor:end;fill:#000000;fill-opacity:1;stroke:none;stroke-width:1px;stroke-linecap:butt;stroke-linejoin:miter;stroke-opacity:1"
         id="text4151">
        <path
           d="m 34.594555,5.0446728 0,37.3060442 c 0,1.8147 -0.407144,3.047765 -1.221432,3.699196 -0.744493,0.628165 -2.140416,0.942248 -4.18777,0.942248 -1.675107,0 -3.850421,-0.12796 -6.52594,-0.383879 l -0.628165,-4.920628 c 2.210211,0.442042 4.187769,0.663063 5.932673,0.663063 1.233065,0 1.849598,-0.546736 1.849598,-1.640209 l 0,-9.596971 -15.075969,0 0,16.50679 -4.8508327,0 0,-42.5756542 z m -19.857005,4.2924629 0,6.5608393 15.075969,0 0,-6.5608393 z m 0,10.7137103 0,6.90982 15.075969,0 0,-6.90982 z m 29.104995,-13.5753526 4.920629,0 0,28.5117296 -4.920629,0 z m 14.657192,-2.0938846 5.060221,0 0,37.1664522 c 0,2.000823 -0.383879,3.385114 -1.151636,4.152871 -0.837554,1.000412 -2.640621,1.500618 -5.409202,1.500618 -2.815111,0 -5.955938,-0.186123 -9.42248,-0.558369 l -0.663064,-5.09512 c 3.280419,0.581635 6.35145,0.872452 9.213092,0.872452 1.582046,0 2.373069,-0.791023 2.373069,-2.373069 z"
           style="font-style:normal;font-variant:normal;font-weight:normal;font-stretch:normal;font-size:71.47126007px;font-family:IPAGothic;-inkscape-font-specification:IPAGothic"
           id="path4370"
           inkscape:connector-curvature="0"
           sodipodi:nodetypes="cscsccsscccccccccccccccccccccccscsccssc" />
      </g>
    </g>
  </g>
</svg>
