<?xml version="1.0" encoding="UTF-8" standalone="no"?>
<!-- Created with Inkscape (http://www.inkscape.org/) -->

<svg
   xmlns:dc="http://purl.org/dc/elements/1.1/"
   xmlns:cc="http://creativecommons.org/ns#"
   xmlns:rdf="http://www.w3.org/1999/02/22-rdf-syntax-ns#"
   xmlns:svg="http://www.w3.org/2000/svg"
   xmlns="http://www.w3.org/2000/svg"
   xmlns:sodipodi="http://sodipodi.sourceforge.net/DTD/sodipodi-0.dtd"
   xmlns:inkscape="http://www.inkscape.org/namespaces/inkscape"
   width="56.960938"
   height="56.492188"
   viewBox="0 0 56.960939 56.492189"
   id="svg2"
   version="1.1"
   inkscape:version="0.92.0 r15299"
   sodipodi:docname="kc_f0a09489.svg">
  <defs
     id="defs4" />
  <sodipodi:namedview
     id="base"
     pagecolor="#ffffff"
     bordercolor="#666666"
     borderopacity="1.0"
     inkscape:pageopacity="0.0"
     inkscape:pageshadow="2"
     inkscape:zoom="7.919596"
     inkscape:cx="31.61722"
     inkscape:cy="29.489446"
     inkscape:document-units="px"
     inkscape:current-layer="text4151"
     showgrid="false"
     fit-margin-left="1"
     fit-margin-top="1"
     fit-margin-bottom="1"
     fit-margin-right="1"
     inkscape:window-width="1280"
     inkscape:window-height="755"
     inkscape:window-x="0"
     inkscape:window-y="23"
     inkscape:window-maximized="1"
     units="px" />
  <metadata
     id="metadata7">
    <rdf:RDF>
      <cc:Work
         rdf:about="">
        <dc:format>image/svg+xml</dc:format>
        <dc:type
           rdf:resource="http://purl.org/dc/dcmitype/StillImage" />
        <dc:title />
      </cc:Work>
    </rdf:RDF>
  </metadata>
  <g
     inkscape:label="Layer 1"
     inkscape:groupmode="layer"
     id="layer1"
     transform="translate(-2.2022171,-2.3556061)">
    <flowRoot
       xml:space="preserve"
       id="flowRoot4136"
       style="font-style:normal;font-weight:normal;font-size:25px;line-height:121.00000381%;font-family:sans-serif;text-align:end;letter-spacing:0px;word-spacing:0px;text-anchor:end;fill:#000000;fill-opacity:1;stroke:none;stroke-width:1px;stroke-linecap:butt;stroke-linejoin:miter;stroke-opacity:1"><flowRegion
         id="flowRegion4138"><rect
           id="rect4140"
           width="427.14285"
           height="412.85715"
           x="97.14286"
           y="103.79078" /></flowRegion><flowPara
         id="flowPara4142" /></flowRoot>    <g
       style="font-style:normal;font-variant:normal;font-weight:normal;font-stretch:normal;font-size:30px;line-height:121.00000381%;font-family:FreeSerif;-inkscape-font-specification:FreeSerif;text-align:end;letter-spacing:0px;word-spacing:0px;text-anchor:end;fill:#000000;fill-opacity:1;stroke:none;stroke-width:1px;stroke-linecap:butt;stroke-linejoin:miter;stroke-opacity:1"
       id="text4144">
      <g
         aria-label="巻"
         style="font-style:normal;font-weight:normal;font-size:25px;line-height:121.00000381%;font-family:sans-serif;text-align:end;letter-spacing:0px;word-spacing:0px;text-anchor:end;fill:#000000;fill-opacity:1;stroke:none;stroke-width:1px;stroke-linecap:butt;stroke-linejoin:miter;stroke-opacity:1"
         id="text4151">
        <path
           d="M 6.8643265,54.058317 3.8467484,50.370912 C 9.7647168,46.173301 14.403389,41.372717 17.762764,35.969163 H 4.4326859 V 31.829529 H 19.784248 c 1.210938,-2.226357 2.314454,-4.719413 3.310547,-7.479168 H 7.3330765 V 20.210726 H 24.471748 c 1.425781,-4.916539 2.431641,-9.635952 3.017578,-14.1582412 l 4.365235,0.7653103 C 31.131904,11.64157 30.155342,16.10588 28.924873,20.210726 h 7.939453 c 2.226563,-4.128037 4.0625,-8.279266 5.507813,-12.4536863 l 4.365234,1.7045552 C 44.49128,14.447708 42.713936,18.030752 41.405342,20.210726 h 12.890625 v 4.139635 H 37.743233 c 1.25,2.574225 2.773437,5.067281 4.570312,7.479168 h 14.882813 v 4.139634 H 44.89167 c 3.398437,4.243994 7.958984,8.14012 13.681641,11.688376 l -3.017578,4.27878 C 48.993233,47.228501 43.739327,41.906116 39.794014,35.969163 H 22.450264 C 18.481421,43.171321 12.184513,49.590543 6.8643265,54.058317 Z M 27.54792,24.350361 c -1.035156,2.945285 -2.099609,5.438341 -3.193359,7.479168 H 37.684639 C 36.14167,29.255304 34.80378,26.762247 33.670967,24.350361 Z m -9.84375,-4.41793 c -1.523437,-3.919316 -3.125,-7.073323 -4.804687,-9.462018 L 16.67878,8.0353343 c 1.894531,2.8989037 3.554687,6.0181227 4.980468,9.3576597 z"
           style="font-style:normal;font-variant:normal;font-weight:normal;font-stretch:normal;font-size:60px;font-family:IPAGothic;-inkscape-font-specification:IPAGothic;stroke-width:1.08967459px"
           id="path822"
           inkscape:connector-curvature="0"
           sodipodi:nodetypes="ccccccccccccccccccccccccccccccccccccccc" />
      </g>
    </g>
  </g>
</svg>
