<?xml version="1.0" encoding="UTF-8" standalone="no"?>
<!DOCTYPE svg PUBLIC "-//W3C//DTD SVG 1.1//EN"
 "http://www.w3.org/Graphics/SVG/1.1/DTD/svg11.dtd">
<!-- Generated by graphviz version 2.38.0 (20140413.2041)
 -->
<!-- Title: inheritance3860661366 Pages: 1 -->
<svg width="198pt" height="212pt"
 viewBox="0.00 0.00 198.00 212.00" xmlns="http://www.w3.org/2000/svg" xmlns:xlink="http://www.w3.org/1999/xlink">
<g id="graph0" class="graph" transform="scale(1 1) rotate(0) translate(4 208)">
<title>inheritance3860661366</title>
<polygon fill="white" stroke="none" points="-4,4 -4,-208 194,-208 194,4 -4,4"/>
<!-- bunch -->
<g id="node1" class="node"><title>bunch</title>
<g id="a_node1"><a xlink:href="../../api/ChiantiPy.core.bunch.html#ChiantiPy.core.bunch" xlink:title="Calculate the emission line spectrum as a function of temperature and density." target="_top">
<polygon fill="none" stroke="black" stroke-width="0.5" points="174,-56 120,-56 120,-37 174,-37 174,-56"/>
<text text-anchor="middle" x="147" y="-44" font-family="Vera Sans, DejaVu Sans, Liberation Sans, Arial, Helvetica, sans" font-size="10.00">bunch</text>
</a>
</g>
</g>
<!-- ionTrails -->
<g id="node2" class="node"><title>ionTrails</title>
<g id="a_node2"><a xlink:href="../../api/ChiantiPy.base.ionTrails.html#ChiantiPy.base.ionTrails" xlink:title="Base class for `ChiantiPy.core.ion` and `ChiantiPy.core.spectrum`" target="_top">
<polygon fill="none" stroke="black" stroke-width="0.5" points="61,-130 7,-130 7,-111 61,-111 61,-130"/>
<text text-anchor="middle" x="34" y="-118" font-family="Vera Sans, DejaVu Sans, Liberation Sans, Arial, Helvetica, sans" font-size="10.00">ionTrails</text>
</a>
</g>
</g>
<!-- ionTrails&#45;&gt;bunch -->
<g id="edge1" class="edge"><title>ionTrails&#45;&gt;bunch</title>
<path fill="none" stroke="black" stroke-width="0.5" d="M54.8252,-110.997C59.3265,-108.488 63.9659,-105.604 68,-102.5 86.4373,-88.312 84.9134,-77.8018 104,-64.5 107.462,-62.0875 111.298,-59.9005 115.204,-57.9494"/>
<polygon fill="black" stroke="black" stroke-width="0.5" points="116.035,-59.4921 119.802,-55.7679 114.535,-56.3298 116.035,-59.4921"/>
</g>
<!-- ion -->
<g id="node5" class="node"><title>ion</title>
<g id="a_node5"><a xlink:href="../../api/ChiantiPy.core.ion.html#ChiantiPy.core.ion" xlink:title="The top level class for performing spectral calculations for an ion in the" target="_top">
<polygon fill="none" stroke="black" stroke-width="0.5" points="174,-204 120,-204 120,-185 174,-185 174,-204"/>
<text text-anchor="middle" x="147" y="-192" font-family="Vera Sans, DejaVu Sans, Liberation Sans, Arial, Helvetica, sans" font-size="10.00">ion</text>
</a>
</g>
</g>
<!-- ionTrails&#45;&gt;ion -->
<g id="edge3" class="edge"><title>ionTrails&#45;&gt;ion</title>
<path fill="none" stroke="black" stroke-width="0.5" d="M53.7351,-130.09C58.5555,-132.875 63.6156,-136.092 68,-139.5 86.1149,-153.581 85.0895,-163.507 104,-176.5 107.478,-178.889 111.323,-181.063 115.234,-183.007"/>
<polygon fill="black" stroke="black" stroke-width="0.5" points="114.568,-184.628 119.836,-185.183 116.064,-181.464 114.568,-184.628"/>
</g>
<!-- ipymspectrum -->
<g id="node7" class="node"><title>ipymspectrum</title>
<g id="a_node7"><a xlink:href="../../api/ChiantiPy.core.ipymspectrum.html#ChiantiPy.core.ipymspectrum" xlink:title="this is the multiprocessing version of spectrum for using inside an IPython Qtconsole or notebook." target="_top">
<polygon fill="none" stroke="black" stroke-width="0.5" points="190,-167 104,-167 104,-148 190,-148 190,-167"/>
<text text-anchor="middle" x="147" y="-155" font-family="Vera Sans, DejaVu Sans, Liberation Sans, Arial, Helvetica, sans" font-size="10.00">ipymspectrum</text>
</a>
</g>
</g>
<!-- ionTrails&#45;&gt;ipymspectrum -->
<g id="edge5" class="edge"><title>ionTrails&#45;&gt;ipymspectrum</title>
<path fill="none" stroke="black" stroke-width="0.5" d="M61.0246,-129.175C76.3554,-134.285 95.9133,-140.804 112.4,-146.3"/>
<polygon fill="black" stroke="black" stroke-width="0.5" points="112.113,-148.049 117.41,-147.97 113.22,-144.729 112.113,-148.049"/>
</g>
<!-- mspectrum -->
<g id="node8" class="node"><title>mspectrum</title>
<g id="a_node8"><a xlink:href="../../api/ChiantiPy.core.mspectrum.html#ChiantiPy.core.mspectrum" xlink:title="this is the multiprocessing version of spectrum" target="_top">
<polygon fill="none" stroke="black" stroke-width="0.5" points="183,-130 111,-130 111,-111 183,-111 183,-130"/>
<text text-anchor="middle" x="147" y="-118" font-family="Vera Sans, DejaVu Sans, Liberation Sans, Arial, Helvetica, sans" font-size="10.00">mspectrum</text>
</a>
</g>
</g>
<!-- ionTrails&#45;&gt;mspectrum -->
<g id="edge7" class="edge"><title>ionTrails&#45;&gt;mspectrum</title>
<path fill="none" stroke="black" stroke-width="0.5" d="M61.0246,-120.5C74.381,-120.5 90.9458,-120.5 105.893,-120.5"/>
<polygon fill="black" stroke="black" stroke-width="0.5" points="105.893,-122.25 110.893,-120.5 105.893,-118.75 105.893,-122.25"/>
</g>
<!-- spectrum -->
<g id="node10" class="node"><title>spectrum</title>
<g id="a_node10"><a xlink:href="../../api/ChiantiPy.core.spectrum.html#ChiantiPy.core.spectrum" xlink:title="Calculate the emission spectrum as a function of temperature and density." target="_top">
<polygon fill="none" stroke="black" stroke-width="0.5" points="178,-93 116,-93 116,-74 178,-74 178,-93"/>
<text text-anchor="middle" x="147" y="-81" font-family="Vera Sans, DejaVu Sans, Liberation Sans, Arial, Helvetica, sans" font-size="10.00">spectrum</text>
</a>
</g>
</g>
<!-- ionTrails&#45;&gt;spectrum -->
<g id="edge10" class="edge"><title>ionTrails&#45;&gt;spectrum</title>
<path fill="none" stroke="black" stroke-width="0.5" d="M61.0246,-111.825C76.3554,-106.715 95.9133,-100.196 112.4,-94.6999"/>
<polygon fill="black" stroke="black" stroke-width="0.5" points="113.22,-96.2713 117.41,-93.0299 112.113,-92.9509 113.22,-96.2713"/>
</g>
<!-- specTrails -->
<g id="node3" class="node"><title>specTrails</title>
<g id="a_node3"><a xlink:href="../../api/ChiantiPy.base.specTrails.html#ChiantiPy.base.specTrails" xlink:title="a collection of methods for use in spectrum calculations" target="_top">
<polygon fill="none" stroke="black" stroke-width="0.5" points="65,-93 3,-93 3,-74 65,-74 65,-93"/>
<text text-anchor="middle" x="34" y="-81" font-family="Vera Sans, DejaVu Sans, Liberation Sans, Arial, Helvetica, sans" font-size="10.00">specTrails</text>
</a>
</g>
</g>
<!-- specTrails&#45;&gt;bunch -->
<g id="edge2" class="edge"><title>specTrails&#45;&gt;bunch</title>
<path fill="none" stroke="black" stroke-width="0.5" d="M63.5853,-73.9716C79.3029,-68.7324 98.8204,-62.2265 114.916,-56.8613"/>
<polygon fill="black" stroke="black" stroke-width="0.5" points="115.603,-58.4769 119.793,-55.2355 114.497,-55.1565 115.603,-58.4769"/>
</g>
<!-- specTrails&#45;&gt;ion -->
<g id="edge4" class="edge"><title>specTrails&#45;&gt;ion</title>
<path fill="none" stroke="black" stroke-width="0.5" d="M55.9189,-93.0212C60.2725,-95.6586 64.5731,-98.8258 68,-102.5 92.9461,-129.246 77.5263,-151.265 104,-176.5 107.289,-179.635 111.209,-182.269 115.313,-184.468"/>
<polygon fill="black" stroke="black" stroke-width="0.5" points="114.559,-186.047 119.817,-186.687 116.106,-182.907 114.559,-186.047"/>
</g>
<!-- specTrails&#45;&gt;ipymspectrum -->
<g id="edge6" class="edge"><title>specTrails&#45;&gt;ipymspectrum</title>
<path fill="none" stroke="black" stroke-width="0.5" d="M53.7351,-93.0902C58.5555,-95.8748 63.6156,-99.092 68,-102.5 86.1149,-116.581 85.0895,-126.507 104,-139.5 107.237,-141.724 110.792,-143.761 114.421,-145.599"/>
<polygon fill="black" stroke="black" stroke-width="0.5" points="114.129,-147.4 119.394,-147.983 115.642,-144.244 114.129,-147.4"/>
</g>
<!-- specTrails&#45;&gt;mspectrum -->
<g id="edge8" class="edge"><title>specTrails&#45;&gt;mspectrum</title>
<path fill="none" stroke="black" stroke-width="0.5" d="M63.5853,-93.0284C78.3594,-97.9531 96.491,-103.997 111.982,-109.161"/>
<polygon fill="black" stroke="black" stroke-width="0.5" points="111.829,-110.954 117.126,-110.875 112.936,-107.634 111.829,-110.954"/>
</g>
<!-- radLoss -->
<g id="node9" class="node"><title>radLoss</title>
<g id="a_node9"><a xlink:href="../../api/ChiantiPy.core.radLoss.html#ChiantiPy.core.radLoss" xlink:title="Calculate the emission spectrum as a function of temperature and density." target="_top">
<polygon fill="none" stroke="black" stroke-width="0.5" points="174,-19 120,-19 120,-0 174,-0 174,-19"/>
<text text-anchor="middle" x="147" y="-7" font-family="Vera Sans, DejaVu Sans, Liberation Sans, Arial, Helvetica, sans" font-size="10.00">radLoss</text>
</a>
</g>
</g>
<!-- specTrails&#45;&gt;radLoss -->
<g id="edge9" class="edge"><title>specTrails&#45;&gt;radLoss</title>
<path fill="none" stroke="black" stroke-width="0.5" d="M45.0748,-73.8C57.9458,-61.7823 81.2853,-41.2189 104,-27.5 107.709,-25.2596 111.748,-23.1558 115.807,-21.2323"/>
<polygon fill="black" stroke="black" stroke-width="0.5" points="116.741,-22.7294 120.562,-19.0596 115.286,-19.546 116.741,-22.7294"/>
</g>
<!-- specTrails&#45;&gt;spectrum -->
<g id="edge11" class="edge"><title>specTrails&#45;&gt;spectrum</title>
<path fill="none" stroke="black" stroke-width="0.5" d="M65.0382,-83.5C79.1052,-83.5 95.9583,-83.5 110.637,-83.5"/>
<polygon fill="black" stroke="black" stroke-width="0.5" points="110.938,-85.2501 115.938,-83.5 110.938,-81.7501 110.938,-85.2501"/>
</g>
<!-- continuum -->
<g id="node4" class="node"><title>continuum</title>
<g id="a_node4"><a xlink:href="../../api/ChiantiPy.core.continuum.html#ChiantiPy.core.continuum" xlink:title="The top level class for continuum calculations. Includes methods for the calculation of the" target="_top">
<polygon fill="none" stroke="black" stroke-width="0.5" points="68,-167 0,-167 0,-148 68,-148 68,-167"/>
<text text-anchor="middle" x="34" y="-155" font-family="Vera Sans, DejaVu Sans, Liberation Sans, Arial, Helvetica, sans" font-size="10.00">continuum</text>
</a>
</g>
</g>
<!-- ioneq -->
<g id="node6" class="node"><title>ioneq</title>
<g id="a_node6"><a xlink:href="../../api/ChiantiPy.core.ioneq.html#ChiantiPy.core.ioneq" xlink:title="Calculation ion fractions as a function of temperature assuming" target="_top">
<polygon fill="none" stroke="black" stroke-width="0.5" points="61,-204 7,-204 7,-185 61,-185 61,-204"/>
<text text-anchor="middle" x="34" y="-192" font-family="Vera Sans, DejaVu Sans, Liberation Sans, Arial, Helvetica, sans" font-size="10.00">ioneq</text>
</a>
</g>
</g>
</g>
</svg>
