<?xml version="1.0" encoding="UTF-8" standalone="no"?>
<svg
   xmlns:dc="http://purl.org/dc/elements/1.1/"
   xmlns:cc="http://creativecommons.org/ns#"
   xmlns:rdf="http://www.w3.org/1999/02/22-rdf-syntax-ns#"
   xmlns:svg="http://www.w3.org/2000/svg"
   xmlns="http://www.w3.org/2000/svg"
   xmlns:sodipodi="http://sodipodi.sourceforge.net/DTD/sodipodi-0.dtd"
   xmlns:inkscape="http://www.inkscape.org/namespaces/inkscape"
   id="svg"
   version="1.1"
   width="400"
   height="400"
   viewBox="0 0 400 400"
   sodipodi:docname="qoobar.svg"
   inkscape:version="0.92.2 2405546, 2018-03-11">
  <metadata
     id="metadata10">
    <rdf:RDF>
      <cc:Work
         rdf:about="">
        <dc:format>image/svg+xml</dc:format>
        <dc:type
           rdf:resource="http://purl.org/dc/dcmitype/StillImage" />
      </cc:Work>
    </rdf:RDF>
  </metadata>
  <defs
     id="defs8" />
  <sodipodi:namedview
     pagecolor="#ffffff"
     bordercolor="#666666"
     borderopacity="1"
     objecttolerance="10"
     gridtolerance="10"
     guidetolerance="10"
     inkscape:pageopacity="0"
     inkscape:pageshadow="2"
     inkscape:window-width="705"
     inkscape:window-height="480"
     id="namedview6"
     showgrid="false"
     inkscape:zoom="0.59"
     inkscape:cx="200"
     inkscape:cy="200"
     inkscape:window-x="0"
     inkscape:window-y="31"
     inkscape:window-maximized="0"
     inkscape:current-layer="svg" />
  <g
     id="svgg">
    <path
       id="path0"
       d="M0.000 200.000 L 0.000 400.000 200.000 400.000 L 400.000 400.000 400.000 200.000 L 400.000 0.000 200.000 0.000 L 0.000 0.000 0.000 200.000 M257.436 62.600 C 258.588 64.580,259.899 66.740,260.350 67.400 C 260.801 68.060,261.716 69.665,262.383 70.966 C 263.049 72.267,263.862 73.627,264.189 73.988 C 264.516 74.349,265.886 76.795,267.234 79.422 C 268.581 82.050,270.011 84.560,270.412 85.000 C 270.812 85.440,271.523 86.775,271.990 87.966 C 272.458 89.158,273.277 90.651,273.810 91.285 C 274.343 91.918,274.960 93.108,275.181 93.929 C 275.402 94.750,276.014 96.005,276.540 96.719 C 277.067 97.433,277.820 98.868,278.214 99.908 C 278.607 100.949,279.328 102.340,279.815 103.000 C 280.301 103.660,281.002 105.131,281.372 106.269 C 281.741 107.407,282.294 108.546,282.600 108.800 C 282.906 109.054,283.456 110.193,283.823 111.331 C 284.190 112.469,285.077 114.480,285.794 115.800 C 286.511 117.120,287.322 118.920,287.596 119.800 C 287.871 120.680,288.597 122.300,289.209 123.400 C 289.822 124.500,290.706 126.698,291.174 128.284 C 291.642 129.870,292.193 131.272,292.400 131.400 C 292.607 131.528,293.162 132.930,293.633 134.516 C 294.105 136.102,294.909 138.226,295.419 139.235 C 295.930 140.244,296.711 142.529,297.155 144.313 C 297.599 146.098,298.324 148.267,298.766 149.134 C 299.208 150.001,299.766 151.945,300.005 153.455 C 300.245 154.965,300.956 157.730,301.585 159.600 C 302.215 161.470,303.032 165.135,303.400 167.745 C 303.769 170.355,304.312 173.325,304.607 174.345 C 306.879 182.188,306.984 199.402,304.804 206.509 C 304.384 207.879,303.687 210.620,303.256 212.600 C 302.825 214.580,301.916 217.253,301.236 218.541 C 300.556 219.828,300.000 221.378,300.000 221.984 C 300.000 222.591,299.484 224.058,298.854 225.244 C 298.223 226.430,297.419 228.390,297.066 229.600 C 296.713 230.810,295.996 232.430,295.473 233.200 C 294.950 233.970,294.120 235.680,293.630 237.000 C 293.140 238.320,292.512 239.670,292.235 240.000 C 291.958 240.330,291.327 241.500,290.832 242.600 C 290.338 243.700,289.524 245.230,289.024 246.000 C 288.145 247.354,287.369 248.633,284.400 253.616 C 283.630 254.908,281.595 257.998,279.878 260.483 C 278.161 262.967,276.328 265.630,275.806 266.400 C 275.284 267.170,274.379 268.381,273.796 269.092 C 273.212 269.803,272.284 271.063,271.732 271.892 C 271.181 272.721,270.293 273.850,269.759 274.400 C 269.224 274.950,268.032 276.390,267.109 277.600 C 266.186 278.810,264.074 281.344,262.415 283.231 C 260.757 285.118,259.034 287.098,258.587 287.631 C 250.719 297.009,226.199 321.106,212.600 332.824 C 211.500 333.772,209.970 335.131,209.200 335.843 C 208.430 336.556,206.926 337.918,205.857 338.869 C 204.788 339.821,203.404 341.070,202.781 341.645 C 201.149 343.150,198.776 343.455,197.723 342.294 C 197.278 341.802,195.537 340.246,193.856 338.836 C 192.175 337.426,190.800 336.128,190.800 335.951 C 190.800 335.774,190.137 335.178,189.326 334.627 C 188.516 334.077,186.491 332.384,184.826 330.865 C 183.162 329.346,180.794 327.225,179.565 326.152 C 165.286 313.685,140.062 287.585,132.800 277.764 C 132.030 276.723,130.815 275.264,130.100 274.522 C 129.385 273.780,128.800 273.043,128.800 272.884 C 128.800 272.725,127.990 271.607,127.000 270.400 C 126.010 269.193,125.200 268.033,125.200 267.822 C 125.200 267.611,124.632 266.852,123.938 266.137 C 123.245 265.421,122.300 264.224,121.838 263.477 C 119.450 259.608,118.524 258.195,117.755 257.245 C 117.290 256.670,116.501 255.390,116.001 254.400 C 115.502 253.410,114.610 251.970,114.018 251.200 C 113.427 250.430,112.711 249.221,112.428 248.513 C 112.145 247.806,111.669 247.023,111.369 246.774 C 110.807 246.308,106.000 236.869,106.000 236.232 C 106.000 236.036,105.540 235.272,104.977 234.535 C 104.415 233.798,103.605 232.178,103.178 230.935 C 102.750 229.692,101.860 227.595,101.200 226.274 C 100.540 224.953,100.000 223.493,100.000 223.030 C 100.000 222.567,99.475 221.111,98.833 219.794 C 98.191 218.477,97.296 215.960,96.844 214.200 C 96.392 212.440,95.674 210.010,95.248 208.800 C 92.970 202.322,93.246 180.399,95.663 175.883 C 95.879 175.479,96.413 173.058,96.850 170.503 C 97.287 167.947,98.093 164.584,98.641 163.028 C 99.189 161.473,99.881 158.828,100.177 157.151 C 100.474 155.474,101.113 153.224,101.597 152.151 C 102.081 151.078,102.827 148.762,103.255 147.005 C 103.683 145.247,104.392 143.201,104.831 142.458 C 105.269 141.715,105.999 139.733,106.452 138.053 C 106.905 136.374,107.505 134.638,107.785 134.195 C 108.064 133.753,108.765 131.846,109.341 129.957 C 109.917 128.068,110.735 126.082,111.159 125.542 C 111.584 125.003,112.234 123.491,112.605 122.181 C 112.976 120.871,113.724 119.143,114.267 118.339 C 114.810 117.535,115.510 116.030,115.822 114.993 C 116.134 113.956,117.742 110.370,119.395 107.024 C 121.048 103.677,122.400 100.805,122.400 100.642 C 122.400 100.478,122.923 99.584,123.562 98.655 C 124.202 97.726,124.923 96.253,125.166 95.383 C 125.409 94.512,126.236 92.818,127.004 91.619 C 127.772 90.419,128.400 89.246,128.400 89.011 C 128.400 88.777,128.887 87.869,129.483 86.993 C 130.078 86.117,131.059 84.381,131.662 83.136 C 132.265 81.891,132.930 80.767,133.139 80.638 C 133.348 80.509,133.850 79.483,134.254 78.358 C 134.659 77.233,135.409 75.860,135.922 75.306 C 136.435 74.753,137.301 73.290,137.848 72.054 C 138.394 70.819,139.180 69.446,139.596 69.004 C 140.011 68.562,140.677 67.478,141.075 66.595 C 141.474 65.712,142.193 64.441,142.673 63.770 C 143.154 63.100,143.665 62.080,143.809 61.505 C 144.572 58.466,148.275 58.712,149.684 61.896 C 150.105 62.849,150.942 64.208,151.543 64.915 C 152.144 65.622,152.971 66.740,153.381 67.400 C 153.791 68.060,154.350 68.734,154.624 68.898 C 154.897 69.062,155.677 70.142,156.356 71.298 C 157.035 72.454,158.407 74.480,159.404 75.800 C 160.402 77.120,161.528 78.719,161.909 79.353 C 162.289 79.987,163.278 81.306,164.106 82.284 C 164.934 83.262,165.904 84.633,166.262 85.331 C 166.619 86.029,167.040 86.690,167.196 86.800 C 167.352 86.910,167.983 87.802,168.597 88.782 C 169.211 89.762,170.055 90.842,170.474 91.182 C 170.892 91.522,171.631 92.449,172.117 93.242 C 174.009 96.330,175.579 98.651,176.554 99.800 C 177.570 100.997,178.715 102.548,180.541 105.200 C 182.636 108.243,183.144 108.488,186.860 108.243 C 196.514 107.607,205.536 107.559,209.800 108.119 C 216.753 109.033,219.119 107.895,222.097 102.200 C 222.327 101.760,223.119 100.724,223.858 99.899 C 224.596 99.073,225.200 98.156,225.200 97.861 C 225.200 97.566,225.579 96.981,226.041 96.562 C 226.504 96.144,227.352 94.991,227.926 94.000 C 228.499 93.010,229.426 91.744,229.984 91.187 C 230.543 90.629,231.315 89.639,231.700 88.987 C 232.433 87.745,233.591 86.052,235.479 83.461 C 236.095 82.615,236.997 81.355,237.481 80.661 C 237.966 79.968,238.829 78.770,239.398 78.000 C 239.968 77.230,241.319 75.340,242.400 73.800 C 244.701 70.524,245.905 68.870,247.788 66.400 C 248.543 65.410,249.659 63.724,250.269 62.654 C 252.950 57.946,254.721 57.933,257.436 62.600 M115.289 163.763 C 110.361 166.653,109.802 167.331,108.012 172.586 C 106.425 177.250,108.131 191.448,110.802 195.800 C 111.207 196.460,111.935 198.080,112.420 199.400 C 112.904 200.720,113.623 202.160,114.017 202.600 C 114.411 203.040,115.191 204.440,115.750 205.712 C 116.309 206.983,117.050 208.307,117.396 208.653 C 117.743 209.000,118.367 209.952,118.784 210.768 C 119.201 211.585,119.817 212.482,120.153 212.761 C 120.489 213.040,121.230 214.063,121.799 215.034 C 122.368 216.005,122.976 216.800,123.149 216.800 C 123.322 216.800,124.069 217.655,124.807 218.700 C 126.522 221.128,135.580 230.012,138.200 231.837 C 139.300 232.603,141.133 233.851,142.274 234.610 C 143.414 235.370,144.456 236.168,144.590 236.384 C 144.724 236.600,145.681 237.151,146.717 237.607 C 147.752 238.064,149.243 238.881,150.028 239.423 C 150.814 239.966,152.704 240.840,154.228 241.367 C 155.753 241.893,157.742 242.603,158.649 242.942 C 168.314 246.566,179.959 242.780,181.615 235.475 C 182.860 229.979,182.152 220.678,180.175 216.554 C 179.636 215.429,178.837 213.471,178.401 212.203 C 177.965 210.936,177.066 209.081,176.404 208.081 C 175.742 207.081,175.198 205.979,175.195 205.631 C 175.188 204.834,170.194 197.190,167.262 193.489 C 164.006 189.379,162.696 187.935,157.767 183.019 C 151.140 176.410,150.396 175.782,144.544 171.848 C 143.413 171.088,142.380 170.291,142.248 170.077 C 141.903 169.520,136.110 166.735,131.200 164.767 C 125.558 162.506,118.222 162.043,115.289 163.763 M273.996 163.214 C 273.225 163.397,271.605 164.007,270.396 164.570 C 269.188 165.132,267.974 165.594,267.698 165.596 C 267.422 165.598,266.342 166.028,265.298 166.551 C 264.254 167.074,262.275 168.062,260.900 168.748 C 259.525 169.433,258.400 170.147,258.400 170.333 C 258.400 170.520,257.543 171.140,256.495 171.710 C 255.447 172.280,254.155 173.209,253.625 173.773 C 253.095 174.338,252.415 174.800,252.114 174.800 C 251.814 174.800,250.881 175.475,250.041 176.300 C 249.200 177.125,247.302 178.880,245.822 180.200 C 241.248 184.280,233.199 193.579,231.051 197.266 C 230.453 198.292,229.688 199.361,229.351 199.641 C 229.013 199.921,228.316 200.982,227.800 202.000 C 227.284 203.018,226.575 204.089,226.223 204.381 C 225.871 204.673,225.388 205.687,225.149 206.636 C 224.911 207.584,224.277 208.954,223.740 209.680 C 223.204 210.406,222.482 211.990,222.136 213.200 C 221.789 214.410,221.056 216.362,220.505 217.539 C 216.535 226.030,218.318 238.438,223.990 241.784 C 224.377 242.013,225.123 242.505,225.647 242.877 C 228.296 244.760,241.283 244.370,243.862 242.331 C 244.116 242.130,245.501 241.629,246.939 241.217 C 248.378 240.806,250.363 239.914,251.350 239.235 C 252.337 238.556,253.326 238.000,253.548 238.000 C 253.953 238.000,258.916 234.696,262.366 232.130 C 266.152 229.314,274.562 221.194,275.446 219.500 C 275.762 218.895,276.170 218.400,276.353 218.400 C 276.669 218.400,280.234 213.731,282.117 210.850 C 285.813 205.196,290.122 196.609,291.001 193.143 C 291.356 191.745,292.024 189.610,292.485 188.400 C 293.165 186.615,293.358 185.015,293.509 179.919 L 293.695 173.637 292.160 170.367 C 289.171 163.998,282.219 161.260,273.996 163.214 "
       stroke="none"
       fill="#5f5f5f"
       fill-rule="evenodd" />
    <path
       id="path1"
       d="M252.788 59.746 C 252.012 60.276,250.878 61.584,250.269 62.654 C 249.659 63.724,248.543 65.410,247.788 66.400 C 245.905 68.870,244.701 70.524,242.400 73.800 C 241.319 75.340,239.968 77.230,239.398 78.000 C 238.829 78.770,237.966 79.968,237.481 80.661 C 236.997 81.355,236.095 82.615,235.479 83.461 C 233.591 86.052,232.433 87.745,231.700 88.987 C 231.315 89.639,230.543 90.629,229.984 91.187 C 229.426 91.744,228.499 93.010,227.926 94.000 C 227.352 94.991,226.504 96.144,226.041 96.562 C 225.579 96.981,225.200 97.566,225.200 97.861 C 225.200 98.156,224.596 99.073,223.858 99.899 C 223.119 100.724,222.327 101.760,222.097 102.200 C 219.119 107.895,216.753 109.033,209.800 108.119 C 205.536 107.559,196.514 107.607,186.860 108.243 C 183.144 108.488,182.636 108.243,180.541 105.200 C 178.715 102.548,177.570 100.997,176.554 99.800 C 175.579 98.651,174.009 96.330,172.117 93.242 C 171.631 92.449,170.892 91.522,170.474 91.182 C 170.055 90.842,169.211 89.762,168.597 88.782 C 167.983 87.802,167.352 86.910,167.196 86.800 C 167.040 86.690,166.619 86.029,166.262 85.331 C 165.904 84.633,164.934 83.262,164.106 82.284 C 163.278 81.306,162.289 79.987,161.909 79.353 C 161.528 78.719,160.402 77.120,159.404 75.800 C 158.407 74.480,157.035 72.454,156.356 71.298 C 155.677 70.142,154.897 69.062,154.624 68.898 C 154.350 68.734,153.791 68.060,153.381 67.400 C 152.971 66.740,152.144 65.622,151.543 64.915 C 150.942 64.208,150.105 62.849,149.684 61.896 C 148.275 58.712,144.572 58.466,143.809 61.505 C 143.665 62.080,143.154 63.100,142.673 63.770 C 142.193 64.441,141.474 65.712,141.075 66.595 C 140.677 67.478,140.011 68.562,139.596 69.004 C 139.180 69.446,138.394 70.819,137.848 72.054 C 137.301 73.290,136.435 74.753,135.922 75.306 C 135.409 75.860,134.659 77.233,134.254 78.358 C 133.850 79.483,133.348 80.509,133.139 80.638 C 132.930 80.767,132.265 81.891,131.662 83.136 C 131.059 84.381,130.078 86.117,129.483 86.993 C 128.887 87.869,128.400 88.777,128.400 89.011 C 128.400 89.246,127.772 90.419,127.004 91.619 C 126.236 92.818,125.409 94.512,125.166 95.383 C 124.923 96.253,124.202 97.726,123.562 98.655 C 122.923 99.584,122.400 100.478,122.400 100.642 C 122.400 100.805,121.048 103.677,119.395 107.024 C 117.742 110.370,116.134 113.956,115.822 114.993 C 115.510 116.030,114.810 117.535,114.267 118.339 C 113.724 119.143,112.976 120.871,112.605 122.181 C 112.234 123.491,111.584 125.003,111.159 125.542 C 110.735 126.082,109.917 128.068,109.341 129.957 C 108.765 131.846,108.064 133.753,107.785 134.195 C 107.505 134.638,106.905 136.374,106.452 138.053 C 105.999 139.733,105.269 141.715,104.831 142.458 C 104.392 143.201,103.683 145.247,103.255 147.005 C 102.827 148.762,102.081 151.078,101.597 152.151 C 101.113 153.224,100.474 155.474,100.177 157.151 C 99.881 158.828,99.189 161.473,98.641 163.028 C 98.093 164.584,97.287 167.947,96.850 170.503 C 96.413 173.058,95.879 175.479,95.663 175.883 C 93.246 180.399,92.970 202.322,95.248 208.800 C 95.674 210.010,96.392 212.440,96.844 214.200 C 97.296 215.960,98.191 218.477,98.833 219.794 C 99.475 221.111,100.000 222.567,100.000 223.030 C 100.000 223.493,100.540 224.953,101.200 226.274 C 101.860 227.595,102.750 229.692,103.178 230.935 C 103.605 232.178,104.415 233.798,104.977 234.535 C 105.540 235.272,106.000 236.036,106.000 236.232 C 106.000 236.869,110.807 246.308,111.369 246.774 C 111.669 247.023,112.145 247.806,112.428 248.513 C 112.711 249.221,113.427 250.430,114.018 251.200 C 114.610 251.970,115.502 253.410,116.001 254.400 C 116.501 255.390,117.290 256.670,117.755 257.245 C 118.524 258.195,119.450 259.608,121.838 263.477 C 122.300 264.224,123.245 265.421,123.938 266.137 C 124.632 266.852,125.200 267.611,125.200 267.822 C 125.200 268.033,126.010 269.193,127.000 270.400 C 127.990 271.607,128.800 272.725,128.800 272.884 C 128.800 273.043,129.385 273.780,130.100 274.522 C 130.815 275.264,132.030 276.723,132.800 277.764 C 140.062 287.585,165.286 313.685,179.565 326.152 C 180.794 327.225,183.162 329.346,184.826 330.865 C 186.491 332.384,188.516 334.077,189.326 334.627 C 190.137 335.178,190.800 335.774,190.800 335.951 C 190.800 336.128,192.175 337.426,193.856 338.836 C 195.537 340.246,197.278 341.802,197.723 342.294 C 198.776 343.455,201.149 343.150,202.781 341.645 C 203.404 341.070,204.788 339.821,205.857 338.869 C 206.926 337.918,208.430 336.556,209.200 335.843 C 209.970 335.131,211.500 333.772,212.600 332.824 C 226.199 321.106,250.719 297.009,258.587 287.631 C 259.034 287.098,260.757 285.118,262.415 283.231 C 264.074 281.344,266.186 278.810,267.109 277.600 C 268.032 276.390,269.224 274.950,269.759 274.400 C 270.293 273.850,271.181 272.721,271.732 271.892 C 272.284 271.063,273.212 269.803,273.796 269.092 C 274.379 268.381,275.284 267.170,275.806 266.400 C 276.328 265.630,278.161 262.967,279.878 260.483 C 281.595 257.998,283.630 254.908,284.400 253.616 C 287.369 248.633,288.145 247.354,289.024 246.000 C 289.524 245.230,290.338 243.700,290.832 242.600 C 291.327 241.500,291.958 240.330,292.235 240.000 C 292.512 239.670,293.140 238.320,293.630 237.000 C 294.120 235.680,294.950 233.970,295.473 233.200 C 295.996 232.430,296.713 230.810,297.066 229.600 C 297.419 228.390,298.223 226.430,298.854 225.244 C 299.484 224.058,300.000 222.591,300.000 221.984 C 300.000 221.378,300.556 219.828,301.236 218.541 C 301.916 217.253,302.825 214.580,303.256 212.600 C 303.687 210.620,304.384 207.879,304.804 206.509 C 306.984 199.402,306.879 182.188,304.607 174.345 C 304.312 173.325,303.769 170.355,303.400 167.745 C 303.032 165.135,302.215 161.470,301.585 159.600 C 300.956 157.730,300.245 154.965,300.005 153.455 C 299.766 151.945,299.208 150.001,298.766 149.134 C 298.324 148.267,297.599 146.098,297.155 144.313 C 296.711 142.529,295.930 140.244,295.419 139.235 C 294.909 138.226,294.105 136.102,293.633 134.516 C 293.162 132.930,292.607 131.528,292.400 131.400 C 292.193 131.272,291.642 129.870,291.174 128.284 C 290.706 126.698,289.822 124.500,289.209 123.400 C 288.597 122.300,287.871 120.680,287.596 119.800 C 287.322 118.920,286.511 117.120,285.794 115.800 C 285.077 114.480,284.190 112.469,283.823 111.331 C 283.456 110.193,282.906 109.054,282.600 108.800 C 282.294 108.546,281.741 107.407,281.372 106.269 C 281.002 105.131,280.301 103.660,279.815 103.000 C 279.328 102.340,278.607 100.949,278.214 99.908 C 277.820 98.868,277.067 97.433,276.540 96.719 C 276.014 96.005,275.402 94.750,275.181 93.929 C 274.960 93.108,274.343 91.918,273.810 91.285 C 273.277 90.651,272.458 89.158,271.990 87.966 C 271.523 86.775,270.812 85.440,270.412 85.000 C 270.011 84.560,268.581 82.050,267.234 79.422 C 265.886 76.795,264.516 74.349,264.189 73.988 C 263.862 73.627,263.049 72.267,262.383 70.966 C 261.716 69.665,260.801 68.060,260.350 67.400 C 259.899 66.740,258.588 64.580,257.436 62.600 C 255.093 58.572,254.787 58.384,252.788 59.746 M131.200 164.767 C 136.110 166.735,141.903 169.520,142.248 170.077 C 142.380 170.291,143.413 171.088,144.544 171.848 C 150.396 175.782,151.140 176.410,157.767 183.019 C 162.696 187.935,164.006 189.379,167.262 193.489 C 170.194 197.190,175.188 204.834,175.195 205.631 C 175.198 205.979,175.742 207.081,176.404 208.081 C 177.066 209.081,177.965 210.936,178.401 212.203 C 178.837 213.471,179.636 215.429,180.175 216.554 C 182.152 220.678,182.860 229.979,181.615 235.475 C 179.959 242.780,168.314 246.566,158.649 242.942 C 157.742 242.603,155.753 241.893,154.228 241.367 C 152.704 240.840,150.814 239.966,150.028 239.423 C 149.243 238.881,147.752 238.064,146.717 237.607 C 145.681 237.151,144.724 236.600,144.590 236.384 C 144.456 236.168,143.414 235.370,142.274 234.610 C 141.133 233.851,139.300 232.603,138.200 231.837 C 135.580 230.012,126.522 221.128,124.807 218.700 C 124.069 217.655,123.322 216.800,123.149 216.800 C 122.976 216.800,122.368 216.005,121.799 215.034 C 121.230 214.063,120.489 213.040,120.153 212.761 C 119.817 212.482,119.201 211.585,118.784 210.768 C 118.367 209.952,117.743 209.000,117.396 208.653 C 117.050 208.307,116.309 206.983,115.750 205.712 C 115.191 204.440,114.411 203.040,114.017 202.600 C 113.623 202.160,112.904 200.720,112.420 199.400 C 111.935 198.080,111.207 196.460,110.802 195.800 C 108.131 191.448,106.425 177.250,108.012 172.586 C 109.802 167.331,110.361 166.653,115.289 163.763 C 118.222 162.043,125.558 162.506,131.200 164.767 M284.813 163.340 C 288.026 164.490,290.522 166.877,292.160 170.367 L 293.695 173.637 293.509 179.919 C 293.358 185.015,293.165 186.615,292.485 188.400 C 292.024 189.610,291.356 191.745,291.001 193.143 C 290.122 196.609,285.813 205.196,282.117 210.850 C 280.234 213.731,276.669 218.400,276.353 218.400 C 276.170 218.400,275.762 218.895,275.446 219.500 C 274.562 221.194,266.152 229.314,262.366 232.130 C 258.916 234.696,253.953 238.000,253.548 238.000 C 253.326 238.000,252.337 238.556,251.350 239.235 C 250.363 239.914,248.378 240.806,246.939 241.217 C 245.501 241.629,244.116 242.130,243.862 242.331 C 241.283 244.370,228.296 244.760,225.647 242.877 C 225.123 242.505,224.377 242.013,223.990 241.784 C 218.318 238.438,216.535 226.030,220.505 217.539 C 221.056 216.362,221.789 214.410,222.136 213.200 C 222.482 211.990,223.204 210.406,223.740 209.680 C 224.277 208.954,224.911 207.584,225.149 206.636 C 225.388 205.687,225.871 204.673,226.223 204.381 C 226.575 204.089,227.284 203.018,227.800 202.000 C 228.316 200.982,229.013 199.921,229.351 199.641 C 229.688 199.361,230.453 198.292,231.051 197.266 C 233.199 193.579,241.248 184.280,245.822 180.200 C 247.302 178.880,249.200 177.125,250.041 176.300 C 250.881 175.475,251.814 174.800,252.114 174.800 C 252.415 174.800,253.095 174.338,253.625 173.773 C 254.155 173.209,255.447 172.280,256.495 171.710 C 257.543 171.140,258.400 170.520,258.400 170.333 C 258.400 170.147,259.525 169.433,260.900 168.748 C 262.275 168.062,264.254 167.074,265.298 166.551 C 266.342 166.028,267.422 165.598,267.698 165.596 C 267.974 165.594,269.188 165.132,270.396 164.570 C 274.210 162.795,281.540 162.170,284.813 163.340 "
       stroke="none"
       fill="#ffffff"
       fill-rule="evenodd" />
  </g>
</svg>
