<?xml version="1.0" standalone="no"?>
<!DOCTYPE svg PUBLIC "-//W3C//DTD SVG 20010904//EN"
 "http://www.w3.org/TR/2001/REC-SVG-20010904/DTD/svg10.dtd">
<svg version="1.0" xmlns="http://www.w3.org/2000/svg"
 width="288.000000pt" height="288.000000pt" viewBox="0 0 288.000000 288.000000"
 preserveAspectRatio="xMidYMid meet">
<metadata>
Created by potrace 1.15, written by Peter Selinger 2001-2017
</metadata>
<g transform="translate(0.000000,288.000000) scale(0.100000,-0.100000)"
fill="#000000" stroke="none">
<path d="M660 2382 c0 -5 29 -63 65 -129 l65 -121 0 -86 0 -86 50 0 50 0 0 93
0 92 69 120 68 120 -50 3 c-27 2 -54 -1 -58 -5 -5 -5 -24 -47 -43 -93 l-34
-84 -14 34 c-8 19 -25 61 -38 93 l-24 57 -53 0 c-29 0 -53 -4 -53 -8z"/>
<path d="M1115 2376 c-104 -47 -147 -200 -87 -317 22 -45 36 -59 81 -81 152
-77 302 21 302 195 0 101 -39 174 -108 203 -41 18 -149 17 -188 0z m135 -71
c61 -31 78 -167 30 -235 -38 -53 -119 -49 -152 8 -40 69 -28 173 24 217 34 29
57 31 98 10z"/>
<path d="M1462 2233 c3 -144 6 -162 28 -200 54 -97 205 -112 279 -28 42 48 51
90 51 248 l0 137 -50 0 -50 0 0 -140 c0 -165 -11 -204 -58 -215 -36 -7 -66 6
-84 38 -8 14 -14 78 -16 170 l-4 147 -50 0 -50 0 4 -157z"/>
<path d="M1890 2175 l0 -215 50 0 50 0 0 85 c0 79 1 85 21 85 48 0 61 -18 89
-127 l11 -43 50 0 c51 0 51 0 44 28 -21 86 -39 136 -56 153 -19 19 -19 20 12
47 21 19 32 39 35 67 6 49 -10 82 -55 112 -30 20 -46 23 -142 23 l-109 0 0
-215z"/>
<path d="M1080 1797 c-46 -15 -106 -77 -119 -124 -6 -21 -11 -65 -11 -97 0
-146 107 -235 248 -205 100 20 162 103 162 218 0 160 -129 256 -280 208z m113
-78 c69 -31 84 -182 25 -246 -48 -52 -124 -33 -152 37 -51 128 26 255 127 209z"/>
<path d="M1540 1790 c-166 -57 -202 -287 -59 -386 40 -28 47 -29 148 -29 58 0
114 3 124 7 15 6 17 22 17 123 l0 115 -80 0 -80 0 0 -40 c0 -39 1 -40 35 -40
35 0 35 0 35 -45 l0 -45 -45 0 c-88 0 -135 47 -135 135 0 58 21 100 61 121 30
15 121 21 157 10 15 -5 21 2 30 31 6 20 9 39 7 41 -7 8 -88 21 -125 21 -19 0
-60 -8 -90 -19z"/>
<path d="M1951 1797 c-47 -15 -105 -77 -120 -128 -55 -184 70 -340 240 -299
98 24 159 109 159 220 0 160 -129 255 -279 207z m112 -78 c48 -22 73 -102 56
-179 -17 -76 -64 -110 -126 -89 -63 21 -94 137 -57 215 28 59 73 78 127 53z"/>
<path d="M660 1585 l0 -215 135 0 135 0 0 40 0 40 -85 0 -85 0 0 175 0 175
-50 0 -50 0 0 -215z"/>
<path d="M670 1001 l0 -221 50 0 50 0 0 90 0 90 80 0 80 0 0 -91 0 -90 48 3
47 3 0 215 0 215 -47 3 -48 3 0 -85 0 -86 -80 0 -79 0 -3 83 -3 82 -47 3 -48
3 0 -220z"/>
<path d="M1150 1000 l0 -221 138 3 137 3 2 38 2 37 -89 0 -90 0 0 50 0 49 78
3 77 3 3 37 c3 33 0 38 -22 44 -14 3 -50 4 -81 2 l-55 -3 0 42 0 42 83 3 82 3
0 40 0 40 -132 3 -133 3 0 -221z"/>
<path d="M1553 1214 c-23 -5 -23 -6 -23 -220 l0 -215 48 3 47 3 2 65 c1 36 2
73 2 83 1 12 9 17 31 17 36 0 52 -22 75 -107 l18 -63 49 0 c50 0 50 0 44 28
-20 81 -38 132 -57 155 -18 23 -18 28 -5 33 23 9 56 67 56 98 0 40 -26 84 -62
102 -32 17 -178 28 -225 18z"/>
<path d="M1947 1213 c-9 -8 -9 -396 -1 -417 5 -14 27 -16 140 -16 l134 0 0 40
0 40 -86 0 -85 0 3 51 3 52 75 1 75 1 3 37 c3 33 0 38 -22 44 -14 3 -50 4 -81
2 l-55 -3 0 43 0 42 80 0 80 0 0 45 0 45 -128 0 c-71 0 -132 -3 -135 -7z"/>
<path d="M650 580 l0 -90 785 0 785 0 0 90 0 90 -785 0 -785 0 0 -90z"/>
</g>
</svg>
